<svg width="51" height="51" viewBox="0 0 51 51" fill="none" xmlns="http://www.w3.org/2000/svg">
<path d="M11.7002 46.6C2.70024 40.7 -1.29978 30 0.900224 20C1.50022 17.1 2.70022 14.3 4.40022 11.7C6.10022 9.09997 8.20024 6.89996 10.6002 5.09996C14.3002 2.39996 18.7002 0.799945 23.3002 0.299945C23.3002 0.299945 23.3002 0.299945 23.4002 0.299945C28.8002 -0.200055 34.4002 1.09995 39.3002 4.29995C48.3002 10.1999 52.3002 20.8 50.1002 30.6C49.7002 32.4 49.1002 34.2 48.3002 35.9C47.8002 37 47.2002 38.1 46.5002 39.1C45.8002 40.1 45.1002 41.1 44.3002 42C36.2002 51.4 22.3002 53.5 11.7002 46.6Z" fill="#FEFEFE"/>
<path d="M44.4002 42.2C44.2002 41.7 43.9002 41.2 43.7002 40.6L46.7002 36C47.3002 36 47.9002 36 48.4002 36C47.9002 37.1 47.3002 38.2 46.6002 39.2C45.9002 40.3 45.2002 41.3 44.4002 42.2Z" fill="#A3D5E6"/>
<path d="M1.7002 33.6001C3.4002 38.7001 6.90017 43.4001 11.8002 46.6001C20.8002 52.5001 32.1002 51.9001 40.3002 46.0001L42.2002 39.9001C16.8002 61.5001 2.5002 35.1001 1.7002 33.6001Z" fill="#C33E5D"/>
<path d="M23.4001 0.400043C28.8001 -0.0999571 34.4001 1.20004 39.3001 4.40004C48.3001 10.3 52.3002 20.9001 50.1002 30.7001L45.2002 34.9C55.1002 3.10004 25.1001 0.500043 23.4001 0.400043Z" fill="#C33E5D"/>
<path d="M0.900146 20.0001C1.50015 17.1001 2.70015 14.3001 4.40015 11.7001C6.10015 9.1001 8.20016 6.9001 10.6002 5.1001C19.1002 5.8001 34.8001 10.6001 44.3001 34.5001L41.3001 39.1001C15.6001 40.0001 5.00015 27.6001 0.900146 20.0001Z" fill="#A3D5E6"/>
<path d="M38.1003 43.9999C36.7003 43.0999 37.7003 39.0999 40.3003 35.0999C42.9003 31.0999 46.2003 28.5999 47.6003 29.5999C49.0003 30.4999 48.0003 34.4999 45.4003 38.4999C42.8003 42.4999 39.5003 44.8999 38.1003 43.9999Z" fill="#FEFEFE"/>
</svg>
