<svg width="296" height="175" viewBox="0 0 296 175" fill="none" xmlns="http://www.w3.org/2000/svg">
<path d="M251.659 58.8795H111.109C111.109 58.8795 100.772 59.0526 93.2143 53.0813C93.2143 53.0813 87.6548 51.9563 90.0871 55.4179C92.2588 58.5334 100.337 61.9949 107.46 62.5142C114.583 63.0334 230.55 62.5142 230.55 62.5142C230.55 62.5142 233.677 71.3413 241.495 76.101C242.451 76.7068 243.754 76.0144 243.754 74.8894V63.3796H251.572L251.659 58.8795Z" fill="#001124"/>
<g opacity="0.32">
<path opacity="0.32" d="M243.233 74.6298C235.415 69.9566 232.288 61.043 232.288 61.043C232.288 61.043 116.321 61.5622 109.198 61.043C102.075 60.5237 93.9968 57.0621 91.8252 53.9467C91.5646 53.514 91.3908 53.2544 91.304 52.9082C90.001 52.9947 88.698 53.4274 90.0878 55.4179C92.2595 58.5333 100.338 61.9949 107.461 62.5141C114.584 63.0334 230.551 62.5141 230.551 62.5141C230.551 62.5141 233.678 71.3412 241.496 76.1009C242.452 76.7067 243.755 76.0144 243.755 74.8894V74.8028C243.581 74.7163 243.407 74.7163 243.233 74.6298Z" fill="#001124"/>
</g>
<path d="M210.919 58.1887H156.28C154.89 58.1887 153.761 57.0637 153.761 55.6791V40.7077C153.761 39.323 154.89 38.198 156.28 38.198H210.919C212.309 38.198 213.438 39.323 213.438 40.7077V55.7656C213.438 57.1503 212.309 58.1887 210.919 58.1887Z" fill="#BD2728"/>
<path d="M155.845 58.1871H162.273L153.847 49.7927V56.1967C153.847 57.3217 154.716 58.1871 155.845 58.1871Z" fill="#821B1C"/>
<path d="M153.848 40.1884V45.2943L160.971 38.198H155.846C154.717 38.198 153.848 39.0634 153.848 40.1884Z" fill="#821B1C"/>
<path d="M213.437 56.1965V50.8311L206.054 58.187H211.439C212.569 58.187 213.437 57.3216 213.437 56.1965Z" fill="#821B1C"/>
<path d="M211.439 38.1973H207.357L213.437 44.2551V40.1877C213.437 39.0627 212.569 38.1973 211.439 38.1973Z" fill="#821B1C"/>
<path d="M213.437 46.1579C210.918 46.331 208.486 46.331 205.967 46.504L198.496 46.6771C193.545 46.7637 188.507 46.8502 183.555 46.8502C178.604 46.8502 173.566 46.8502 168.614 46.6771L161.144 46.504C158.625 46.4175 156.192 46.331 153.673 46.1579C156.192 45.9848 158.625 45.9848 161.144 45.8117L168.614 45.6387C173.566 45.5521 178.604 45.4656 183.555 45.4656C188.507 45.4656 193.545 45.4656 198.496 45.6387L205.967 45.8117C208.399 45.9848 210.918 45.9848 213.437 46.1579Z" fill="#A62223"/>
<path d="M169.744 38.0232H165.227V58.2736H169.744V38.0232Z" fill="#4A1616"/>
<path d="M202.84 38.0232H198.323V58.2736H202.84V38.0232Z" fill="#4A1616"/>
<path d="M191.113 46.0713V50.5714H176.693V46.0713" stroke="#4A1616" stroke-width="2.9834" stroke-miterlimit="10" stroke-linecap="round" stroke-linejoin="round"/>
<path opacity="0.28" d="M196.76 38.198C194.849 47.1982 186.771 54.0348 177.128 54.0348H153.848V56.2849C153.848 57.3233 154.717 58.1887 155.759 58.1887H211.614C212.657 58.1887 213.438 57.4099 213.438 56.3714V40.0153C213.438 38.9769 212.57 38.198 211.614 38.198H196.76Z" fill="#BD2728"/>
<path d="M203.535 18.2923H158.625C157.496 18.2923 156.54 17.3404 156.54 16.2154V3.84015C156.54 2.71512 157.496 1.76318 158.625 1.76318H203.535C204.664 1.76318 205.62 2.71512 205.62 3.84015V16.2154C205.533 17.3404 204.577 18.2923 203.535 18.2923Z" fill="#D6AC18"/>
<path d="M158.19 18.2923H163.489L156.54 11.3691V16.6481C156.54 17.5135 157.235 18.2923 158.19 18.2923Z" fill="#A38312"/>
<path d="M156.54 3.49398V7.73444L162.36 1.93626H158.19C157.235 1.84972 156.54 2.54204 156.54 3.49398Z" fill="#A38312"/>
<path d="M205.533 16.6482V12.2346L199.539 18.2059H203.969C204.838 18.2924 205.533 17.5136 205.533 16.6482Z" fill="#A38312"/>
<path d="M203.882 1.84961H200.581L205.533 6.78239V3.49387C205.533 2.54193 204.838 1.84961 203.882 1.84961Z" fill="#A38312"/>
<path d="M205.533 8.34004C203.448 8.42658 201.45 8.51312 199.365 8.59966L193.198 8.77274C189.115 8.85928 185.032 8.85928 180.863 8.85928C176.78 8.85928 172.697 8.85928 168.528 8.77274L162.534 8.59966C160.449 8.51312 158.451 8.42658 156.366 8.34004C158.451 8.2535 160.449 8.16696 162.534 8.08042L168.701 7.90734C172.784 7.8208 176.867 7.8208 181.036 7.8208C185.119 7.8208 189.202 7.8208 193.371 7.90734L199.539 8.08042C201.45 8.16696 203.448 8.2535 205.533 8.34004Z" fill="#A38312"/>
<path d="M187.204 8.25366V11.9749H175.39V8.25366" stroke="#6D4E31" stroke-width="2.4527" stroke-miterlimit="10" stroke-linecap="round" stroke-linejoin="round"/>
<path d="M217.174 38.1982H162.535C161.145 38.1982 160.016 37.0731 160.016 35.6885V20.6305C160.016 19.2459 161.145 18.1208 162.535 18.1208H217.174C218.564 18.1208 219.693 19.2459 219.693 20.6305V35.6885C219.606 37.0731 218.477 38.1982 217.174 38.1982Z" fill="#AD7D59"/>
<path d="M219.605 26.1672C217.086 26.3403 214.654 26.3403 212.134 26.5133L204.664 26.6864C199.713 26.773 194.674 26.8595 189.723 26.8595C184.771 26.8595 179.733 26.8595 174.782 26.6864L167.311 26.5133C164.792 26.4268 162.36 26.3403 159.841 26.1672C162.36 25.9941 164.792 25.9941 167.311 25.821L174.782 25.6479C179.733 25.5614 184.771 25.4749 189.723 25.4749C194.674 25.4749 199.713 25.4749 204.664 25.6479L212.134 25.821C214.654 25.9076 217.086 25.9941 219.605 26.1672Z" fill="#70513A"/>
<path d="M175.998 17.946H171.481V38.1964H175.998V17.946Z" fill="#4A1616"/>
<path d="M209.007 17.946H204.49V38.1964H209.007V17.946Z" fill="#4A1616"/>
<path d="M197.28 25.9941V30.4942H182.86V25.9941" stroke="#4A1616" stroke-width="2.9834" stroke-miterlimit="10" stroke-linecap="round" stroke-linejoin="round"/>
<path opacity="0.28" d="M202.927 18.2083C201.016 27.2084 192.937 34.0451 183.295 34.0451H159.928V36.2951C159.928 37.3336 160.797 38.199 161.839 38.199H217.694C218.737 38.199 219.519 37.4201 219.519 36.3817V20.0256C219.519 18.9871 218.65 18.2083 217.694 18.2083H202.927Z" fill="#AD7D59"/>
<path d="M159.32 24.0068L129.612 58.7094C128.83 59.5748 127.527 59.6613 126.659 58.969L117.016 50.7477C116.148 49.9688 116.061 48.6707 116.756 47.8053L146.464 13.1028C147.246 12.2374 148.549 12.1508 149.418 12.8431L159.06 21.0644C160.015 21.8433 160.102 23.1414 159.32 24.0068Z" fill="#6D4E31"/>
<path d="M129.351 59.0527L132.825 54.9854L122.923 55.7642L127.005 59.2258C127.7 59.8316 128.83 59.7451 129.351 59.0527Z" fill="#402E1D"/>
<path d="M116.755 50.4852L120.056 53.2545L119.361 44.8601L116.581 48.1486C115.973 48.8409 116.06 49.8794 116.755 50.4852Z" fill="#402E1D"/>
<path d="M159.407 21.3214L156.019 18.4656L156.714 27.1196L159.58 23.7445C160.188 22.9657 160.102 21.9272 159.407 21.3214Z" fill="#402E1D"/>
<path d="M146.811 12.8414L144.639 15.4376L151.762 14.8318L149.156 12.6683C148.461 12.0625 147.419 12.149 146.811 12.8414Z" fill="#402E1D"/>
<path d="M152.979 15.8691C151.676 17.5134 150.373 19.1577 149.156 20.8019L145.247 25.6482C142.641 28.8502 139.949 32.0521 137.256 35.2541C134.563 38.3696 131.783 41.5716 129.003 44.687L124.834 49.3602C123.444 50.9179 122.054 52.4756 120.577 53.9468C121.88 52.3025 123.183 50.6583 124.4 49.014L128.309 44.1678C130.915 40.9658 133.607 37.7638 136.3 34.5618C138.993 31.4464 141.773 28.2444 144.553 25.1289L148.722 20.4558C150.112 18.9846 151.502 17.4269 152.979 15.8691Z" fill="#4D3722"/>
<path d="M124.028 39.1438L121.548 42.0415L134.505 53.0464L136.985 50.1486L124.028 39.1438Z" fill="#4A1616"/>
<path d="M142.03 18.1663L139.55 21.064L152.507 32.0688L154.987 29.1711L142.03 18.1663Z" fill="#4A1616"/>
<path d="M140.817 29.9753L143.684 32.485L135.866 41.5717L132.999 39.1486" stroke="#4A1616" stroke-width="2.4988" stroke-miterlimit="10" stroke-linecap="round" stroke-linejoin="round"/>
<path opacity="0.28" d="M138.819 22.1001C143.51 28.2444 143.51 37.0715 138.298 43.1293L125.615 57.9277L127.092 59.1392C127.787 59.745 128.83 59.6585 129.351 58.9662L159.667 23.4847C160.188 22.8789 160.101 21.927 159.493 21.3212L149.069 12.4076C148.461 11.8884 147.419 11.9749 146.898 12.5807L138.819 22.1001Z" fill="#6D4E31"/>
<path d="M193.979 60.7834C193.979 60.7834 200.06 23.225 203.448 1.50342" stroke="#001124" stroke-width="2.3756" stroke-miterlimit="10" stroke-linecap="round"/>
<path d="M176.432 60.7834C176.432 60.7834 165.835 23.225 162.36 1.50342" stroke="#001124" stroke-width="2.3756" stroke-miterlimit="10" stroke-linecap="round"/>
<path d="M154.629 60.524C154.629 60.524 146.029 34.3889 143.162 16.1289" stroke="#001124" stroke-width="2" stroke-miterlimit="10" stroke-linecap="round"/>
<path d="M200.06 156.583L275.808 153.468C275.808 153.468 243.754 108.38 219.344 116.515C195.022 124.65 200.06 156.583 200.06 156.583Z" fill="#141414"/>
<path d="M12.9497 157.016L92.9537 158.314C92.9537 158.314 63.9403 111.236 39.0965 117.727C14.1658 124.131 12.9497 157.016 12.9497 157.016Z" fill="#141414"/>
<path d="M70.3721 149.722C72.5733 136.182 63.3381 123.435 49.7447 121.252C36.1513 119.07 23.3472 128.277 21.146 141.818C18.9448 155.358 28.18 168.105 41.7734 170.288C55.3668 172.47 68.1709 163.263 70.3721 149.722Z" fill="url(#paint0_linear_21_200)"/>
<path opacity="0.51" d="M45.6983 120.929C42.2236 120.929 38.9227 121.621 35.9692 122.919C37.7934 122.486 39.7045 122.227 41.6156 122.227C54.6455 122.227 65.2432 132.785 65.2432 145.766C65.2432 158.747 54.6455 169.305 41.6156 169.305C39.6176 169.305 37.7934 169.045 35.9692 168.612C38.9227 169.91 42.2236 170.603 45.6983 170.603C59.4232 170.603 70.6289 159.526 70.6289 145.766C70.6289 132.006 59.51 120.929 45.6983 120.929Z" fill="#343739"/>
<path d="M59.749 148.43C61.2355 140.732 56.176 133.297 48.4483 131.823C40.7206 130.349 33.251 135.394 31.7645 143.091C30.278 150.789 35.3375 158.224 43.0652 159.698C50.793 161.172 58.2625 156.127 59.749 148.43Z" stroke="#90999E" stroke-width="3.1457" stroke-miterlimit="10"/>
<path d="M53.1688 145.766C53.1688 149.833 49.8679 153.208 45.6983 153.208C41.6156 153.208 38.2278 149.92 38.2278 145.766C38.2278 141.698 41.5287 138.323 45.6983 138.323C49.8679 138.323 53.1688 141.612 53.1688 145.766Z" fill="#90999E"/>
<path d="M45.6982 131.487V159.958" stroke="#90999E" stroke-width="3.1457" stroke-miterlimit="10"/>
<path d="M31.4521 145.766H60.0312" stroke="#90999E" stroke-width="3.1457" stroke-miterlimit="10"/>
<path d="M35.448 155.631L55.601 135.468" stroke="#90999E" stroke-width="3.1457" stroke-miterlimit="10"/>
<path d="M35.6218 135.727L55.7748 155.804" stroke="#90999E" stroke-width="3.1457" stroke-miterlimit="10"/>
<path d="M56.991 134.948C58.9021 137.544 59.9445 140.66 59.9445 144.035C59.9445 152.602 52.9083 159.612 44.3085 159.612C39.8783 159.612 35.8825 157.795 33.0159 154.852C35.8825 158.747 40.4864 161.343 45.6984 161.343C54.2981 161.343 61.3343 154.333 61.3343 145.766C61.3343 141.525 59.6839 137.718 56.991 134.948Z" fill="#90999E"/>
<g opacity="0.49">
<path opacity="0.49" d="M35.1874 126.121C33.3632 127.506 31.7127 129.063 30.236 130.708C28.7593 132.352 27.4563 134.169 26.4139 136.073C25.3715 137.977 24.5028 140.054 23.9816 142.218C23.6341 143.256 23.4604 144.381 23.2867 145.506C23.1129 146.025 23.1129 146.631 23.1129 147.15C23.0261 147.756 23.0261 148.275 22.9392 148.881C22.8523 148.275 22.7655 147.756 22.6786 147.15C22.5917 146.545 22.5049 146.025 22.5049 145.42V143.689C22.5049 143.083 22.6786 142.564 22.6786 141.958C22.7655 140.746 23.1998 139.708 23.4604 138.496C23.6341 137.977 23.8947 137.371 24.1553 136.852C24.3291 136.333 24.6765 135.814 24.9371 135.294C26.0664 133.217 27.5431 131.313 29.2805 129.756C31.1047 128.285 33.1026 126.986 35.1874 126.121Z" fill="white"/>
</g>
<path d="M256.464 150.171C258.963 136.682 250.011 123.737 236.468 121.258C222.926 118.78 209.921 127.706 207.422 141.196C204.923 154.686 213.875 167.631 227.418 170.109C240.96 172.588 253.965 163.661 256.464 150.171Z" fill="url(#paint1_linear_21_200)"/>
<path opacity="0.51" d="M231.94 120.928C228.465 120.928 225.164 121.621 222.211 122.919C224.035 122.486 225.946 122.227 227.857 122.227C240.887 122.227 251.485 132.784 251.485 145.765C251.485 158.746 240.887 169.304 227.857 169.304C225.859 169.304 224.035 169.045 222.211 168.612C225.164 169.91 228.465 170.602 231.94 170.602C245.665 170.602 256.871 159.525 256.871 145.765C256.784 132.006 245.665 120.928 231.94 120.928Z" fill="#343739"/>
<path d="M245.59 149.809C247.875 142.308 243.622 134.39 236.09 132.124C228.558 129.857 220.6 134.1 218.315 141.601C216.03 149.101 220.283 157.019 227.815 159.286C235.347 161.552 243.305 157.309 245.59 149.809Z" stroke="#90999E" stroke-width="3.1457" stroke-miterlimit="10"/>
<path d="M239.323 145.766C239.323 149.833 236.022 153.208 231.853 153.208C227.77 153.208 224.382 149.92 224.382 145.766C224.382 141.698 227.683 138.323 231.853 138.323C236.022 138.323 239.323 141.612 239.323 145.766Z" fill="#90999E"/>
<path d="M231.94 131.486V159.958" stroke="#90999E" stroke-width="3.1457" stroke-miterlimit="10"/>
<path d="M217.607 145.765H246.186" stroke="#90999E" stroke-width="3.1457" stroke-miterlimit="10"/>
<path d="M221.603 155.631L241.756 135.467" stroke="#90999E" stroke-width="3.1457" stroke-miterlimit="10"/>
<path d="M221.777 135.727L241.93 155.804" stroke="#90999E" stroke-width="3.1457" stroke-miterlimit="10"/>
<path d="M243.146 134.948C245.057 137.544 246.099 140.66 246.099 144.035C246.099 152.602 239.063 159.612 230.463 159.612C226.033 159.612 222.037 157.795 219.171 154.852C222.037 158.747 226.641 161.343 231.853 161.343C240.453 161.343 247.489 154.333 247.489 145.766C247.489 141.525 245.839 137.717 243.146 134.948Z" fill="#90999E"/>
<g opacity="0.49">
<path opacity="0.49" d="M221.429 126.121C219.605 127.505 217.954 129.063 216.478 130.707C215.001 132.352 213.698 134.169 212.656 136.073C211.613 137.977 210.745 140.054 210.223 142.217C209.876 143.256 209.702 144.381 209.528 145.506C209.355 146.025 209.355 146.631 209.355 147.15C209.268 147.756 209.268 148.275 209.181 148.881C209.094 148.275 209.007 147.756 208.92 147.15C208.833 146.544 208.747 146.025 208.747 145.419V143.688C208.747 143.083 208.92 142.563 208.92 141.958C209.007 140.746 209.442 139.708 209.702 138.496C209.876 137.977 210.136 137.371 210.397 136.852C210.571 136.333 210.918 135.813 211.179 135.294C212.308 133.217 213.785 131.313 215.522 129.756C217.259 128.284 219.257 126.986 221.429 126.121Z" fill="white"/>
</g>
<path d="M14.3396 133.996C14.3396 133.996 4.95802 135.727 4.61055 137.631C4.34996 139.535 13.7315 139.362 13.7315 139.362L14.3396 133.996Z" fill="#2E2C2B"/>
<path d="M266.078 112.448L273.896 111.928L276.242 114.525L267.989 115.823L266.078 112.448Z" fill="#86AEBA"/>
<path opacity="0.33" d="M273.896 111.928L272.854 112.015C273.115 113.053 272.507 114.179 271.29 114.438L267.468 115.044L267.903 115.909L276.155 114.611L273.896 111.928Z" fill="#86AEBA"/>
<path d="M282.323 149.4H291.009C291.009 149.4 290.314 151.65 289.011 153.381H283.712L282.323 149.4Z" fill="#807A77"/>
<path opacity="0.32" d="M289.967 149.4C289.011 151.218 287.1 152.343 285.015 152.343H283.365L283.712 153.381H289.011C290.401 151.65 291.009 149.4 291.009 149.4H289.967Z" fill="#807A77"/>
<path d="M96.081 95.7455C96.081 95.7455 94.5174 94.1878 90.0872 94.7936C85.657 95.3994 41.1814 94.9667 23.2001 116.948C23.2001 116.948 18.3355 118.506 15.2952 128.285C12.168 138.064 13.1236 147.756 13.1236 147.756C13.1236 147.756 18.1618 141.958 19.2911 139.448C20.4203 136.939 30.3231 119.804 46.1328 121.534C61.9425 123.265 70.8897 135.554 72.8008 146.371C74.7119 157.189 78.4471 157.535 78.4471 157.535H194.414C194.414 157.535 200.06 158.66 201.797 155.804C203.535 152.949 202.145 136.16 216.652 128.112C231.158 120.063 247.402 124.217 254.525 135.208C261.648 146.198 263.646 154.074 285.102 154.074C285.102 154.074 285.102 143.689 275.46 130.015C275.46 130.015 273.897 122.486 269.64 115.996C265.384 109.419 245.057 90.0339 220.126 74.8028C195.196 59.5718 146.29 58.6198 111.456 70.2162L96.081 95.7455Z" fill="#6196A6"/>
<path d="M16.8586 124.217C42.1368 103.88 87.2204 104.399 87.2204 104.399C91.6506 100.592 91.7375 97.0434 90.9557 94.7068" stroke="#131C30" stroke-width="1.3353" stroke-miterlimit="10"/>
<path d="M164.705 151.996L164.618 131.746V111.496V91.2453L164.705 70.9949L165.227 71.5142L143.249 72.12L137.777 72.293C135.953 72.3796 134.128 72.3796 132.304 72.4661C128.656 72.7257 125.094 73.245 121.533 74.1104C118.058 75.0623 114.583 76.2739 111.717 78.3508C110.24 79.3893 109.024 80.6009 107.982 82.0721C106.939 83.5433 105.897 85.101 104.941 86.5722C101.032 92.7165 97.3839 99.0339 93.9092 105.438L93.9961 105.265L93.8224 128.458L93.5618 151.65L93.3012 128.458L93.1274 105.265V105.178L93.2143 105.092C96.6021 98.6012 100.164 92.1973 104.159 86.0529C105.115 84.4952 106.157 83.024 107.2 81.4663C108.242 79.9086 109.632 78.5239 111.196 77.4854C114.236 75.3219 117.798 73.9373 121.359 72.9854C124.921 72.0334 128.656 71.5142 132.304 71.2546C136.039 71.0815 139.601 71.0815 143.336 70.9084L165.313 70.3892H165.835V70.9084L165.661 91.1588L165.4 111.409L165.14 131.66L164.705 151.996Z" fill="#131C30"/>
<path d="M221.864 75.7546C222.037 76.7066 222.645 78.0047 224.035 79.5624C227.51 83.4567 242.19 97.3031 245.665 97.13C246.62 97.0435 247.576 96.2646 248.445 95.1396C240.887 88.7356 231.766 81.9855 221.864 75.7546Z" fill="#061115"/>
<path d="M221.864 75.7546C222.298 77.2258 223.253 78.3508 224.296 79.3893C225.338 80.4278 226.467 81.4663 227.597 82.5048C229.768 84.4952 232.027 86.5721 234.285 88.476C236.544 90.4665 238.802 92.3703 241.148 94.1877C242.364 95.0531 243.58 96.005 244.883 96.5243C245.231 96.6973 245.578 96.7839 245.839 96.6973C246.186 96.6973 246.534 96.5243 246.794 96.3512C247.402 96.005 248.01 95.4858 248.445 94.88C248.01 95.4858 247.576 96.0916 246.968 96.6108C246.62 96.8704 246.273 97.0435 245.926 97.13C245.491 97.2166 245.057 97.13 244.709 97.0435C243.233 96.5243 241.93 95.7454 240.627 94.88C238.108 93.1492 235.762 91.2453 233.504 89.2549C231.245 87.2645 229.073 85.1875 226.989 83.024C225.946 81.899 224.904 80.8605 223.948 79.6489C222.993 78.6105 222.124 77.3124 221.864 75.7546Z" fill="#242424"/>
<path d="M162.621 96.8705V78.4374C162.621 78.4374 162.968 73.8508 157.409 73.5912C151.762 73.4181 129.003 74.197 119.361 77.0528C109.719 79.9086 108.937 84.1491 105.463 89.9472C101.988 95.7454 100.424 99.034 103.551 100.505C106.679 102.063 156.887 101.457 156.887 101.457C156.887 101.457 162.968 102.496 162.621 96.8705Z" fill="#061115"/>
<path opacity="0.45" d="M141.686 74.0238L114.236 101.37C115.018 101.37 115.886 101.37 116.668 101.457L144.292 73.9373C143.51 73.9373 142.641 74.0238 141.686 74.0238Z" fill="#061115"/>
<path opacity="0.45" d="M157.322 73.5913C156.627 73.5913 155.671 73.5913 154.542 73.5913L126.397 101.63C128.482 101.63 130.654 101.63 132.738 101.63L160.188 74.2836C159.493 73.8509 158.625 73.5913 157.322 73.5913Z" fill="#061115"/>
<path opacity="0.45" d="M162.621 82.3318L143.25 101.63C144.379 101.63 145.508 101.63 146.55 101.63L162.621 85.6203V82.3318Z" fill="#061115"/>
<path opacity="0.45" d="M162.621 93.9282L154.976 101.544C155.845 101.544 156.453 101.544 156.714 101.544L162.621 95.659V93.9282Z" fill="#061115"/>
<path d="M162.621 96.8705V78.4374C162.621 78.4374 162.968 73.8508 157.409 73.5912C151.762 73.4181 129.003 74.197 119.361 77.0528C109.719 79.9086 108.937 84.1491 105.463 89.9472C101.988 95.7454 100.424 99.034 103.551 100.505C106.679 102.063 156.887 101.457 156.887 101.457C156.887 101.457 162.968 102.496 162.621 96.8705Z" stroke="#242424" stroke-width="1.3353" stroke-miterlimit="10"/>
<path d="M181.905 73.7644C181.905 73.7644 200.494 75.6682 210.31 81.4664C220.213 87.2646 222.298 92.0243 221.342 96.2648C220.387 100.505 216.912 101.89 216.912 101.89C216.912 101.89 213.611 101.89 198.583 101.717C183.468 101.544 172.697 101.717 172.697 101.717C172.697 101.717 167.659 101.717 167.659 96.3513C167.659 90.9858 167.832 76.3606 167.832 76.3606C167.832 76.3606 167.832 73.5047 172.436 73.2451C177.04 72.9855 181.905 73.7644 181.905 73.7644Z" fill="#061115"/>
<path opacity="0.45" d="M198.67 76.9663L173.826 101.717C174.434 101.717 175.216 101.717 176.172 101.717L200.494 77.4855C199.886 77.3125 199.278 77.1394 198.67 76.9663Z" fill="#061115"/>
<path opacity="0.45" d="M210.571 81.6394L190.505 101.63C192.242 101.63 194.153 101.63 196.151 101.717L214.045 83.8894C212.916 83.1106 211.787 82.3317 210.571 81.6394Z" fill="#061115"/>
<path opacity="0.45" d="M218.997 88.3032L205.446 101.803C205.88 101.803 206.314 101.803 206.749 101.803L219.518 89.0821C219.431 88.8225 219.257 88.5628 218.997 88.3032Z" fill="#061115"/>
<path d="M181.905 73.7644C181.905 73.7644 200.494 75.6682 210.31 81.4664C220.213 87.2646 222.298 92.0243 221.342 96.2648C220.387 100.505 216.912 101.89 216.912 101.89C216.912 101.89 213.611 101.89 198.583 101.717C183.468 101.544 172.697 101.717 172.697 101.717C172.697 101.717 167.659 101.717 167.659 96.3513C167.659 90.9858 167.832 76.3606 167.832 76.3606C167.832 76.3606 167.832 73.5047 172.436 73.2451C177.04 72.9855 181.905 73.7644 181.905 73.7644Z" stroke="#242424" stroke-width="1.3353" stroke-miterlimit="10"/>
<path d="M229.073 108.986C227.249 108.553 225.425 108.207 223.601 107.948L220.821 107.515L218.041 107.169C216.217 106.909 214.306 106.736 212.482 106.563L209.702 106.303L206.923 106.13C205.098 106.044 203.187 105.871 201.363 105.697L195.804 105.438C192.068 105.178 188.333 105.178 184.598 105.092C169.657 104.746 154.716 104.919 139.775 105.351C136.04 105.438 132.304 105.611 128.569 105.697C124.834 105.871 121.098 105.957 117.363 106.13C109.893 106.563 102.422 106.909 94.9517 107.342C87.4812 107.861 80.0107 108.207 72.5402 108.813L50.0417 110.371L72.3664 108.207C79.8369 107.515 87.3074 107.082 94.778 106.476C98.5132 106.13 102.248 105.957 105.984 105.784L117.189 105.178C120.925 105.005 124.66 104.832 128.395 104.659C132.131 104.486 135.866 104.313 139.601 104.226C147.072 104.053 154.542 103.88 162.013 103.88C165.748 103.88 169.483 103.88 173.218 103.967C176.954 104.053 180.689 104.053 184.424 104.226C188.159 104.399 191.895 104.486 195.63 104.746L201.189 105.092C203.014 105.265 204.925 105.438 206.749 105.611L209.529 105.871L212.308 106.217C214.132 106.476 216.043 106.649 217.868 106.909L220.647 107.342L223.427 107.861C225.425 108.121 227.249 108.553 229.073 108.986Z" fill="#131C30"/>
<path d="M165.227 70.3028C169.483 70.0431 173.653 70.1297 177.909 70.3893C182.079 70.7355 186.335 71.2547 190.418 72.1201C194.587 72.9855 198.67 74.024 202.579 75.4952C206.575 76.9663 210.397 78.6971 214.045 80.7741C217.694 82.8511 221.255 85.1011 224.643 87.5242C228.031 89.9474 231.332 92.6301 234.546 95.3128C237.76 98.0821 240.713 100.938 243.667 103.967C246.534 106.996 249.313 110.111 251.832 113.486C249.313 110.198 246.447 107.082 243.58 104.053C240.627 101.111 237.586 98.2552 234.372 95.4859C231.158 92.8032 227.857 90.207 224.469 87.7839C220.995 85.4473 217.433 83.1972 213.785 81.2068C210.05 79.2164 206.314 77.5721 202.319 76.1009C198.41 74.7163 194.327 73.6778 190.244 72.899C186.161 72.1201 181.992 71.6009 177.822 71.3412C173.653 71.0816 169.483 71.0816 165.313 71.3412L165.227 70.3028Z" fill="#131C30"/>
<path d="M222.558 89.5144C224.035 90.3798 225.251 91.6779 226.12 93.2356C226.554 94.0145 226.815 94.8799 226.902 95.7453C226.989 96.6107 226.989 97.5626 226.728 98.428L226.554 99.1204L226.294 99.7261C226.12 100.159 225.946 100.505 225.772 100.938C225.338 101.717 224.73 102.409 224.035 103.015C222.645 104.14 220.734 104.572 219.084 104.226C220.734 104.053 222.298 103.447 223.514 102.322C224.643 101.284 225.338 99.7261 225.686 98.255C226.033 96.6972 225.859 95.1395 225.338 93.6683C224.73 92.0241 223.775 90.6394 222.558 89.5144Z" fill="#131C30"/>
<path d="M254.178 99.813C254.265 101.198 254.004 102.496 253.657 103.794C253.483 104.486 253.222 105.092 252.875 105.698C252.701 106.044 252.527 106.303 252.354 106.563L252.093 106.996L251.919 107.429C251.745 107.688 251.746 107.948 251.572 108.207C251.572 108.467 251.485 108.727 251.485 109.073C251.398 109.679 251.572 110.284 251.746 110.804C252.093 112.015 252.788 113.14 253.57 114.179C252.44 113.4 251.485 112.361 250.877 111.063C250.269 109.852 250.182 108.121 250.877 106.823L251.137 106.303L251.398 105.871C251.572 105.611 251.745 105.352 251.919 105.005C252.267 104.486 252.527 103.88 252.788 103.275C253.396 102.236 253.83 101.025 254.178 99.813Z" fill="#131C30"/>
<path d="M258.521 108.294C258.608 108.294 258.782 108.294 258.869 108.121L259.824 105.092C259.737 105.005 259.564 104.832 259.477 104.746L258.434 108.034C258.348 108.121 258.434 108.294 258.521 108.294Z" fill="#061115"/>
<path d="M259.563 108.9C259.65 108.9 259.824 108.9 259.911 108.727L260.78 105.957C260.693 105.871 260.519 105.698 260.432 105.611L259.477 108.64C259.303 108.727 259.39 108.9 259.563 108.9Z" fill="#061115"/>
<path d="M260.432 109.678C260.519 109.678 260.693 109.678 260.78 109.505L261.648 106.822C261.561 106.736 261.388 106.563 261.301 106.476L260.345 109.419C260.171 109.505 260.258 109.592 260.432 109.678Z" fill="#061115"/>
<path d="M261.301 110.371C261.388 110.371 261.561 110.371 261.648 110.197L262.517 107.601C262.43 107.515 262.256 107.342 262.169 107.255L261.214 110.024C261.04 110.197 261.127 110.284 261.301 110.371Z" fill="#061115"/>
<path d="M262.864 108.034L261.909 110.89C261.909 110.977 261.909 111.15 262.082 111.236C262.169 111.236 262.343 111.236 262.43 111.063L263.299 108.467C263.038 108.294 262.951 108.207 262.864 108.034Z" fill="#061115"/>
<path d="M263.994 109.246C263.907 109.073 263.733 108.986 263.646 108.813L262.691 111.755C262.691 111.842 262.691 112.015 262.864 112.102C262.951 112.102 263.125 112.102 263.212 111.928L263.994 109.246Z" fill="#061115"/>
<path d="M263.646 112.794C263.733 112.794 263.907 112.794 263.994 112.621L264.776 110.111C264.689 109.938 264.515 109.852 264.428 109.678L263.559 112.448C263.473 112.534 263.559 112.707 263.646 112.794Z" fill="#061115"/>
<path d="M102.422 100.419H102.248C100.077 100.419 98.2524 98.6014 98.2524 96.4379C98.2524 94.2744 100.077 92.457 102.248 92.457H102.422V100.419Z" fill="#575351"/>
<path opacity="0.35" d="M99.2951 95.8319C99.2951 94.6203 99.8163 93.4953 100.772 92.803C99.2951 93.4088 98.3396 94.7934 98.3396 96.4377C98.3396 98.6012 100.164 100.419 102.335 100.419H102.509V99.7262C100.598 99.2935 99.2951 97.7358 99.2951 95.8319Z" fill="#575351"/>
<path d="M99.5556 98.1686H97.0365C96.6021 98.1686 96.3416 97.8224 96.3416 97.4763C96.3416 97.0436 96.689 96.7839 97.0365 96.7839H99.5556C99.9899 96.7839 100.251 97.1301 100.251 97.4763C100.337 97.8224 99.9899 98.1686 99.5556 98.1686Z" fill="#575351"/>
<path opacity="0.35" d="M99.5556 97.4764H97.0365C96.7759 97.4764 96.5153 97.3033 96.4284 97.0437C96.3416 97.1302 96.3416 97.2168 96.3416 97.3899C96.3416 97.8226 96.689 98.0822 97.0365 98.0822H99.5556C99.9899 98.0822 100.251 97.736 100.251 97.3899C100.251 97.3033 100.251 97.1302 100.164 97.0437C100.077 97.3033 99.9031 97.4764 99.5556 97.4764Z" fill="#575351"/>
<path d="M260.606 118.419H269.119C269.119 118.419 275.026 124.909 270.856 133.737H261.909L260.606 118.419Z" fill="#D6AC18"/>
<path opacity="0.39" d="M269.119 118.419H267.555C269.032 120.929 270.943 125.861 268.076 132.006H261.735L261.909 133.737H270.856C275.113 124.909 269.119 118.419 269.119 118.419Z" fill="#D6AC18"/>
<path d="M20.1596 120.236C20.1596 120.236 17.3799 120.236 15.5557 120.929C14.9476 121.188 14.4264 121.708 14.2527 122.4C13.9052 123.784 13.2972 126.813 13.5578 130.362C13.5578 130.794 13.9052 131.054 14.3396 131.054H15.99L20.1596 120.236Z" fill="#575351"/>
<path opacity="0.28" d="M14.4264 130.708C14.1658 127.16 14.7739 124.131 15.1214 122.746C15.2951 122.054 15.7294 121.535 16.4244 121.275C17.5536 120.842 19.0304 120.669 19.9859 120.669L20.1596 120.15C20.1596 120.15 17.3799 120.15 15.5557 120.842C14.9476 121.102 14.4264 121.621 14.2527 122.313C13.9052 123.698 13.2972 126.727 13.5578 130.275C13.5578 130.708 13.9052 130.967 14.3396 130.967H14.4264C14.5133 130.881 14.4264 130.794 14.4264 130.708Z" fill="#575351"/>
<path opacity="0.39" d="M155.411 112.621H154.455C152.805 112.621 151.415 111.236 151.415 109.592C151.415 107.948 152.805 106.563 154.455 106.563H155.411C157.061 106.563 158.451 107.948 158.451 109.592C158.451 111.236 157.061 112.621 155.411 112.621Z" fill="#558A9A"/>
<path opacity="0.25" d="M157.061 106.996C157.235 107.342 157.322 107.775 157.322 108.294C157.322 109.938 155.932 111.323 154.281 111.323H153.326C152.718 111.323 152.11 111.15 151.588 110.804C152.11 111.842 153.152 112.534 154.368 112.534H155.324C156.974 112.534 158.364 111.15 158.364 109.506C158.451 108.467 157.93 107.602 157.061 106.996Z" fill="#558A9A"/>
<path d="M148.635 109.938C148.635 109.938 148.201 109.246 150.025 108.813C151.849 108.294 162.707 107.342 163.402 108.38C164.097 109.419 163.576 110.803 162.534 110.63C161.491 110.457 155.758 109.851 152.283 109.938C148.896 110.111 149.243 110.717 148.635 109.938Z" fill="#575351"/>
<path opacity="0.17" d="M163.489 108.467C163.837 109.419 163.229 110.371 162.36 110.284C161.317 110.111 155.584 109.505 152.11 109.592C148.982 109.765 148.982 110.198 148.548 109.765C148.548 109.851 148.635 109.938 148.635 109.938C149.243 110.63 148.896 110.111 152.37 109.938C155.845 109.765 161.578 110.457 162.62 110.63C163.576 110.717 164.184 109.419 163.489 108.467Z" fill="#575351"/>
<path d="M262.517 120.409C256.697 112.88 241.843 111.323 241.843 111.323C241.843 111.323 214.74 107.428 203.013 124.39C193.371 138.15 192.937 152.602 193.024 157.535H194.501C194.501 157.535 200.147 158.66 201.884 155.804C203.621 152.948 202.232 136.16 216.738 128.111C231.245 120.063 247.489 124.217 254.612 135.208C261.04 145.073 263.212 152.429 279.108 153.814C277.892 146.025 267.816 127.246 262.517 120.409Z" fill="#3C8598"/>
<g opacity="0.43">
<path opacity="0.43" d="M238.629 116.255C238.629 116.255 253.483 117.813 259.303 125.342C263.559 130.881 270.943 144.121 274.244 153.208C275.721 153.468 277.284 153.727 279.022 153.9C277.806 146.112 267.729 127.246 262.517 120.409C256.697 112.88 241.843 111.323 241.843 111.323C241.843 111.323 214.74 107.428 203.014 124.39C202.058 125.688 201.276 127.073 200.494 128.458C212.569 112.534 238.629 116.255 238.629 116.255Z" fill="#394665"/>
</g>
<path d="M274.852 141.265V147.583C274.852 147.583 291.965 148.881 295.266 146.025V138.237L274.852 141.265Z" fill="#575351"/>
<path opacity="0.26" d="M274.852 145.246V147.67C274.852 147.67 291.965 148.968 295.266 146.112V143.689C291.878 146.545 274.852 145.246 274.852 145.246Z" fill="#575351"/>
<path d="M277.979 134.083C277.979 134.083 290.922 134.602 294.831 137.631C298.74 140.746 274.852 141.266 274.852 141.266L276.589 139.881C276.589 139.881 289.446 139.102 290.401 137.458C291.357 135.814 278.761 134.948 278.761 134.948L277.979 134.083Z" fill="#2E2C2B"/>
<path d="M59.7709 113.486C44.5693 110.457 32.0605 113.14 23.8951 116.169C23.7214 116.428 23.4608 116.688 23.287 116.948C23.287 116.948 19.5518 118.852 15.3822 128.284C10.6914 138.842 13.0368 157.016 13.0368 157.016C13.0368 157.016 20.681 140.573 21.8103 138.063C22.9396 135.554 30.3232 119.803 46.2198 121.534C62.0295 123.265 70.9767 135.554 72.8878 146.371C74.7988 157.189 78.5341 157.535 78.5341 157.535H92.9539C92.0852 152.689 85.5703 118.678 59.7709 113.486Z" fill="#3C8598"/>
<g opacity="0.31">
<path opacity="0.31" d="M52.7346 116.342C75.4936 120.929 83.2248 147.843 85.3096 157.535H92.8669C92.0851 152.689 85.5701 118.592 59.684 113.4C44.4823 110.371 31.9736 113.053 23.8081 116.082C23.6344 116.342 23.3738 116.602 23.2001 116.861C23.2001 116.861 22.9395 116.948 22.5051 117.207C30.3231 115.13 40.7471 113.919 52.7346 116.342Z" fill="#394665"/>
</g>
<path d="M13.9053 133.91C13.9053 133.91 5.73981 134.256 0.962158 138.237V145.333C0.962158 145.333 9.30133 148.448 13.9053 145.333V138.583C13.9053 138.583 1.57022 137.631 7.56401 136.073C13.5578 134.602 13.9053 133.91 13.9053 133.91Z" fill="#575351"/>
<g opacity="0.31">
<path opacity="0.31" d="M0.962158 142.823V145.419C0.962158 145.419 9.30133 148.535 13.9053 145.419V142.823C9.30133 145.939 0.962158 142.823 0.962158 142.823Z" fill="#575351"/>
</g>
<path d="M123.009 76.1008L120.664 101.717" stroke="#242424" stroke-width="2.003" stroke-miterlimit="10"/>
<path d="M88.9578 158.487C88.9578 158.487 85.6568 154.593 90.5214 151.91C95.3859 149.227 193.719 151.91 193.719 151.91C193.719 151.91 197.367 156.324 193.545 157.708C189.636 159.093 88.9578 158.487 88.9578 158.487Z" fill="#061115"/>
<path d="M93.4749 154.073C97.5576 153.9 101.64 153.9 105.723 153.727L117.971 153.554C126.137 153.468 134.302 153.468 142.468 153.381C150.633 153.381 158.798 153.381 166.964 153.468L179.038 153.641C183.121 153.727 187.204 153.814 191.286 153.9C187.204 154.073 183.121 154.073 179.038 154.247L166.79 154.42C158.625 154.506 150.459 154.506 142.294 154.593C134.128 154.593 125.963 154.593 117.797 154.506L105.549 154.333C101.64 154.247 97.5576 154.247 93.4749 154.073Z" fill="#040C0F"/>
<path d="M93.4749 155.977C97.5576 155.804 101.64 155.804 105.723 155.631L117.971 155.458C126.137 155.371 134.302 155.371 142.468 155.285C150.633 155.285 158.798 155.285 166.964 155.371L179.212 155.545C183.295 155.631 187.377 155.718 191.46 155.804C187.377 155.977 183.295 155.977 179.212 156.15L166.964 156.323C158.798 156.41 150.633 156.41 142.468 156.496C134.302 156.496 126.137 156.496 117.971 156.41L105.723 156.237C101.64 156.15 97.5576 156.15 93.4749 155.977Z" fill="#040C0F"/>
<path d="M162.968 109.246C162.968 108.813 162.62 108.467 162.186 108.467C161.752 108.467 161.404 108.813 161.404 109.246C161.404 109.678 161.752 110.025 162.186 110.025C162.62 109.938 162.968 109.592 162.968 109.246Z" fill="#75706D"/>
<path opacity="0.43" d="M162.881 108.813C162.881 108.9 162.881 108.986 162.881 108.986C162.881 109.419 162.534 109.765 162.1 109.765C161.839 109.765 161.578 109.592 161.491 109.419C161.578 109.765 161.839 109.938 162.186 109.938C162.621 109.938 162.968 109.592 162.968 109.159C162.968 109.073 162.968 108.9 162.881 108.813Z" fill="#D4C8C4"/>
<path d="M162.36 109.159L162.447 108.9H162.012L162.099 109.159C162.012 109.246 162.012 109.246 162.012 109.332C162.012 109.505 162.099 109.592 162.273 109.592C162.447 109.592 162.534 109.505 162.534 109.332C162.447 109.246 162.447 109.159 162.36 109.159Z" fill="#635F5D"/>
<g opacity="0.33">
<path opacity="0.33" d="M162.447 109.159C162.447 109.246 162.447 109.246 162.447 109.159C162.447 109.332 162.36 109.419 162.186 109.419C162.099 109.419 162.012 109.419 162.012 109.332C162.012 109.419 162.099 109.505 162.273 109.505C162.447 109.505 162.534 109.419 162.534 109.246C162.447 109.246 162.447 109.246 162.447 109.159Z" fill="#635F5D"/>
</g>
<g opacity="0.31">
<path opacity="0.31" d="M85.1356 97.3031C81.0528 98.2551 77.057 99.0339 72.9743 99.8128C68.9784 100.678 64.8957 101.457 60.8998 102.322C56.904 103.188 52.9081 104.053 48.9123 105.092C44.9164 106.13 41.0074 107.255 37.1853 108.813C40.5731 106.39 44.4821 104.746 48.3911 103.361C50.389 102.669 52.3869 102.063 54.3849 101.457C56.3828 100.938 58.3807 100.419 60.4655 99.9859C62.4634 99.5532 64.5482 99.207 66.5462 98.8609C68.6309 98.6012 70.6289 98.2551 72.7137 97.9955C76.7964 97.5628 80.966 97.2166 85.1356 97.3031Z" fill="white"/>
</g>
<path d="M123.271 55.3311H119.536V67.7928H123.271V55.3311Z" fill="#756F6D"/>
<path opacity="0.31" d="M122.488 55.3311V60.4369C122.488 63.3793 121.185 65.8024 119.448 66.4082V67.7928H123.183V55.3311H122.488Z" fill="#756F6D"/>
<path d="M203.535 55.3311H199.799V67.7928H203.535V55.3311Z" fill="#756F6D"/>
<path opacity="0.31" d="M202.84 55.3311V60.4369C202.84 63.3793 201.537 65.8024 199.799 66.4082V67.7928H203.535V55.3311H202.84Z" fill="#756F6D"/>
<path d="M205.359 59.6583H116.06C115.539 59.6583 115.104 59.2256 115.104 58.7063C115.104 58.1871 115.539 57.7544 116.06 57.7544H205.359C205.88 57.7544 206.314 58.1871 206.314 58.7063C206.314 59.2256 205.88 59.6583 205.359 59.6583Z" fill="#756F6D"/>
<path opacity="0.26" d="M205.88 57.8411C205.88 58.3603 205.446 58.793 204.924 58.793H115.626C115.452 58.793 115.278 58.7065 115.104 58.6199C115.104 59.1392 115.539 59.5719 116.06 59.5719H205.359C205.88 59.5719 206.314 59.1392 206.314 58.6199C206.314 58.2738 206.141 58.0141 205.88 57.8411Z" fill="#756F6D"/>
<path d="M205.359 56.4564H116.06C115.539 56.4564 115.104 56.0237 115.104 55.5044C115.104 54.9852 115.539 54.5525 116.06 54.5525H205.359C205.88 54.5525 206.314 54.9852 206.314 55.5044C206.314 56.0237 205.88 56.4564 205.359 56.4564Z" fill="#756F6D"/>
<path opacity="0.26" d="M205.967 54.7266C205.88 55.2458 205.532 55.592 205.011 55.592H115.713C115.539 55.592 115.278 55.5054 115.104 55.4189V55.5054C115.104 56.0247 115.539 56.4574 116.06 56.4574H205.359C205.88 56.4574 206.314 56.0247 206.314 55.5054C206.314 55.1593 206.227 54.8996 205.967 54.7266Z" fill="#756F6D"/>
<path d="M114.236 97.8225C114.41 98.6014 114.41 99.2937 114.497 100.073C114.497 100.419 114.497 100.851 114.41 101.198C114.41 101.544 114.323 101.976 114.236 102.323C114.149 101.976 114.062 101.544 114.062 101.198C114.062 100.851 113.975 100.419 113.975 100.073C114.062 99.2937 114.062 98.5148 114.236 97.8225Z" fill="white"/>
<path d="M112.238 99.9859C112.933 99.8129 113.541 99.8129 114.236 99.7263C114.583 99.7263 114.931 99.7263 115.278 99.8129C115.626 99.8129 115.973 99.8994 116.321 99.9859C115.973 100.072 115.626 100.159 115.278 100.159C114.931 100.159 114.583 100.246 114.236 100.246C113.628 100.246 112.933 100.159 112.238 99.9859Z" fill="white"/>
<path d="M112.846 99.986C112.846 99.2071 113.454 98.6013 114.236 98.6013C115.018 98.6013 115.626 99.2071 115.626 99.986C115.626 100.765 115.018 101.371 114.236 101.371C113.541 101.371 112.846 100.765 112.846 99.986Z" fill="url(#paint2_radial_21_200)"/>
<path d="M207.53 80.947C207.791 81.9855 207.878 83.1105 207.878 84.149C207.878 85.1875 207.791 86.3125 207.53 87.351C207.27 86.3125 207.183 85.1875 207.183 84.149C207.183 83.1105 207.27 82.072 207.53 80.947Z" fill="white"/>
<path d="M204.664 84.1491C205.619 83.8895 206.575 83.803 207.53 83.803C208.486 83.803 209.441 83.8895 210.397 84.1491C209.441 84.4088 208.486 84.4953 207.53 84.4953C206.575 84.4953 205.619 84.4088 204.664 84.1491Z" fill="white"/>
<path d="M205.532 84.1489C205.532 83.0238 206.401 82.1584 207.53 82.1584C208.66 82.1584 209.528 83.0238 209.528 84.1489C209.528 85.2739 208.66 86.1393 207.53 86.1393C206.401 86.1393 205.532 85.2739 205.532 84.1489Z" fill="url(#paint3_radial_21_200)"/>
<path d="M103.465 145.16H99.8162C99.1212 145.16 98.5132 144.554 98.5132 143.862C98.5132 143.169 99.1212 142.563 99.8162 142.563H103.465C104.159 142.563 104.768 143.169 104.768 143.862C104.768 144.554 104.159 145.16 103.465 145.16Z" fill="#E77C00"/>
<path opacity="0.34" d="M104.334 142.911C104.334 142.997 104.421 143.17 104.421 143.257C104.421 143.949 103.813 144.555 103.118 144.555H99.4695C99.122 144.555 98.8614 144.468 98.6008 144.209C98.7746 144.728 99.2089 145.074 99.817 145.074H103.465C104.16 145.074 104.768 144.468 104.768 143.776C104.768 143.516 104.595 143.17 104.334 142.911Z" fill="#E77C00"/>
<defs>
<linearGradient id="paint0_linear_21_200" x1="44.5" y1="122.679" x2="44.4536" y2="171.031" gradientUnits="userSpaceOnUse">
<stop offset="0.572917" stop-color="#343739"/>
<stop offset="1" stop-color="#395364"/>
</linearGradient>
<linearGradient id="paint1_linear_21_200" x1="231.193" y1="122.571" x2="230.093" y2="170.911" gradientUnits="userSpaceOnUse">
<stop offset="0.572917" stop-color="#343739"/>
<stop offset="1" stop-color="#395364"/>
</linearGradient>
<radialGradient id="paint2_radial_21_200" cx="0" cy="0" r="1" gradientUnits="userSpaceOnUse" gradientTransform="translate(114.266 100.013) scale(1.3771 1.37192)">
<stop stop-color="white"/>
<stop offset="0.9735" stop-color="white" stop-opacity="0"/>
</radialGradient>
<radialGradient id="paint3_radial_21_200" cx="0" cy="0" r="1" gradientUnits="userSpaceOnUse" gradientTransform="translate(207.515 84.1777) scale(1.98239 1.97492)">
<stop stop-color="white"/>
<stop offset="0.9735" stop-color="white" stop-opacity="0"/>
</radialGradient>
</defs>
</svg>
