<svg width="35" height="35" viewBox="0 0 35 35" fill="none" xmlns="http://www.w3.org/2000/svg">
<path d="M0 29.61C0 25.991 0 22.379 0 18.76C0.385 18.158 0.707 18.088 1.316 18.494C1.855 18.851 2.45 18.984 3.094 18.984C6.762 18.977 10.437 18.977 14.105 18.977C14.238 18.977 14.371 18.977 14.532 18.977C14.539 19.124 14.546 19.236 14.546 19.348C14.546 19.929 14.539 20.51 14.553 21.084C14.56 21.609 14.847 21.889 15.358 21.889C16.765 21.896 18.179 21.896 19.586 21.889C20.069 21.889 20.349 21.616 20.377 21.133C20.391 20.839 20.384 20.545 20.384 20.244C20.384 19.831 20.384 19.411 20.384 18.97C20.573 18.97 20.706 18.97 20.839 18.97C24.5 18.97 28.161 18.963 31.822 18.977C32.515 18.977 33.152 18.83 33.712 18.417C33.971 18.228 34.244 18.165 34.538 18.319C34.846 18.48 34.93 18.76 34.93 19.089C34.923 22.428 34.93 25.774 34.923 29.113C34.923 29.456 34.86 29.82 34.748 30.149C34.328 31.374 33.257 32.074 31.836 32.074C22.253 32.074 12.67 32.074 3.087 32.074C2.982 32.074 2.884 32.074 2.779 32.067C1.547 32.025 0.49 31.206 0.133 30.023C0.084 29.89 0.042 29.75 0 29.61Z" fill="#006270"/>
<path d="M0 15.078C0 13.328 0 11.578 0 9.82801C0.014 9.80701 0.035 9.79301 0.042 9.77201C0.483 8.11301 1.47 7.35001 3.192 7.35001C5.376 7.35001 7.56 7.35001 9.737 7.35001C9.87 7.35001 10.003 7.35001 10.185 7.35001C10.185 6.85301 10.178 6.39101 10.185 5.92901C10.22 4.29101 11.41 3.01001 12.992 2.99601C15.981 2.96801 18.97 2.97501 21.959 2.99601C23.233 3.00301 24.332 3.89901 24.626 5.13801C24.745 5.64201 24.717 6.17401 24.745 6.69201C24.759 6.90201 24.745 7.11201 24.745 7.34301C24.941 7.34301 25.074 7.34301 25.207 7.34301C27.433 7.34301 29.666 7.33601 31.892 7.34301C33.698 7.35001 34.923 8.58201 34.923 10.395C34.923 11.746 34.923 13.104 34.923 14.455C34.923 16.296 33.684 17.528 31.836 17.528C28.14 17.528 24.444 17.528 20.755 17.528C20.636 17.528 20.517 17.528 20.377 17.528C20.377 17.283 20.384 17.094 20.377 16.898C20.363 16.352 20.097 16.079 19.551 16.079C18.151 16.072 16.751 16.072 15.358 16.079C14.833 16.079 14.567 16.352 14.546 16.877C14.539 17.087 14.546 17.297 14.546 17.493C14.469 17.514 14.448 17.521 14.427 17.521C10.542 17.521 6.65 17.535 2.765 17.514C1.561 17.507 0.497 16.639 0.133 15.484C0.091 15.351 0.042 15.218 0 15.078ZM13.111 7.32201C16.037 7.32201 18.928 7.32201 21.812 7.32201C21.812 6.83201 21.812 6.37001 21.812 5.90801C18.9 5.90801 16.009 5.90801 13.111 5.90801C13.111 6.39101 13.111 6.84601 13.111 7.32201Z" fill="#006270"/>
</svg>
