<svg width="33" height="30" viewBox="0 0 33 30" fill="none" xmlns="http://www.w3.org/2000/svg">
<path d="M30.1498 2.9468C29.3604 2.13996 28.4232 1.49992 27.3917 1.06325C26.3601 0.626568 25.2545 0.40181 24.1379 0.40181C23.0214 0.40181 21.9157 0.626568 20.8842 1.06325C19.8527 1.49992 18.9155 2.13996 18.1261 2.9468L16.4879 4.62048L14.8498 2.9468C13.2553 1.31781 11.0928 0.402654 8.83793 0.402654C6.58306 0.402654 4.42055 1.31781 2.82611 2.9468C1.23168 4.57579 0.335938 6.78517 0.335938 9.0889C0.335937 11.3926 1.23168 13.602 2.82611 15.231L4.4643 16.9047L16.4879 29.1889L28.5116 16.9047L30.1498 15.231C30.9395 14.4246 31.5659 13.467 31.9933 12.4131C32.4208 11.3593 32.6408 10.2297 32.6408 9.0889C32.6408 7.94813 32.4208 6.81854 31.9933 5.76466C31.5659 4.71077 30.9395 3.75325 30.1498 2.9468Z" fill="#EE1919"/>
</svg>
