<svg width="31" height="31" viewBox="0 0 31 31" fill="none" xmlns="http://www.w3.org/2000/svg">
<path d="M11.0955 17.4501L19.9175 22.5909" stroke="#2A3950" stroke-width="2" stroke-linecap="round" stroke-linejoin="round"/>
<path d="M19.9046 8.40845L11.0955 13.5493" stroke="#2A3950" stroke-width="2" stroke-linecap="round" stroke-linejoin="round"/>
<path d="M23.25 10.3333C25.3901 10.3333 27.125 8.59844 27.125 6.45834C27.125 4.31823 25.3901 2.58334 23.25 2.58334C21.1099 2.58334 19.375 4.31823 19.375 6.45834C19.375 8.59844 21.1099 10.3333 23.25 10.3333Z" stroke="#2A3950" stroke-width="2" stroke-linecap="round" stroke-linejoin="round"/>
<path d="M7.75 19.375C9.8901 19.375 11.625 17.6401 11.625 15.5C11.625 13.3599 9.8901 11.625 7.75 11.625C5.6099 11.625 3.875 13.3599 3.875 15.5C3.875 17.6401 5.6099 19.375 7.75 19.375Z" stroke="#2A3950" stroke-width="2" stroke-linecap="round" stroke-linejoin="round"/>
<path d="M23.25 28.4167C25.3901 28.4167 27.125 26.6818 27.125 24.5417C27.125 22.4016 25.3901 20.6667 23.25 20.6667C21.1099 20.6667 19.375 22.4016 19.375 24.5417C19.375 26.6818 21.1099 28.4167 23.25 28.4167Z" stroke="#2A3950" stroke-width="2" stroke-linecap="round" stroke-linejoin="round"/>
</svg>
