<svg width="29" height="29" viewBox="0 0 29 29" fill="none" xmlns="http://www.w3.org/2000/svg">
<path d="M28.477 13.8258C28.4824 15.9098 27.9955 17.9656 27.0559 19.8258C25.9419 22.0549 24.2292 23.9298 22.1098 25.2405C19.9904 26.5512 17.5479 27.2459 15.0559 27.2469C12.9719 27.2523 10.9161 26.7654 9.05591 25.8258L0.0559082 28.8258L3.05591 19.8258C2.11633 17.9656 1.62942 15.9098 1.63486 13.8258C1.63582 11.3339 2.33056 8.89138 3.64125 6.77195C4.95195 4.65253 6.82684 2.93988 9.05591 1.82582C10.9161 0.886239 12.9719 0.399336 15.0559 0.404769H15.8454C19.1365 0.586335 22.2449 1.97544 24.5756 4.30613C26.9063 6.63681 28.2954 9.74527 28.477 13.0363V13.8258Z" fill="#636668"/>
</svg>
