<svg width="28" height="40" viewBox="0 0 28 40" fill="none" xmlns="http://www.w3.org/2000/svg">
<path d="M13.8215 0.55481C6.38627 0.55481 0.337158 6.60746 0.337158 14.047C0.337158 23.3977 13.8347 39.3706 13.8347 39.3706C13.8347 39.3706 27.3058 22.9379 27.3058 14.047C27.3058 6.60746 21.2569 0.55481 13.8215 0.55481ZM17.8899 17.9975C16.7681 19.1198 15.2949 19.681 13.8215 19.681C12.3482 19.681 10.8746 19.1198 9.7532 17.9975C7.50976 15.753 7.50976 12.1008 9.7532 9.85601C10.8395 8.76858 12.2846 8.16966 13.8215 8.16966C15.3584 8.16966 16.8032 8.76882 17.8899 9.85601C20.1334 12.1008 20.1334 15.753 17.8899 17.9975Z" fill="#00E0C7"/>
</svg>
