<svg width="35" height="35" viewBox="0 0 35 35" fill="none" xmlns="http://www.w3.org/2000/svg">
<path d="M32.8809 35C22.627 35 12.373 35 2.11914 35C1.45605 34.8086 0.84082 34.5283 0.464844 33.9199C0.273438 33.5986 0.150391 33.2295 0 32.8809C0 22.627 0 12.373 0 2.11914C0.164062 1.57227 0.348633 1.01855 0.820312 0.683594C1.2168 0.40332 1.68164 0.225586 2.11914 0C12.373 0 22.627 0 32.8809 0C33.5439 0.18457 34.1592 0.47168 34.5352 1.08008C34.7334 1.40137 34.8496 1.77051 35 2.11914C35 12.373 35 22.627 35 32.8809C34.8086 33.5439 34.5283 34.1592 33.9199 34.5352C33.5986 34.7266 33.2295 34.8496 32.8809 35ZM19.0312 13.6719C17.5752 13.6719 16.1807 13.6719 14.7998 13.6719C14.7998 17.958 14.7998 22.2031 14.7998 26.4277C16.2217 26.4277 17.6162 26.4277 19.0312 26.4277C19.0312 25.3203 19.0312 24.2402 19.0312 23.1602C19.0381 21.7246 19.0312 20.2891 19.0654 18.8535C19.0859 18.0537 19.5166 17.4521 20.1729 17.0283C21.4102 16.2354 22.9414 16.7959 23.3311 18.2109C23.4609 18.6826 23.5088 19.1953 23.5088 19.6943C23.5293 21.8271 23.5156 23.9531 23.5156 26.0859C23.5156 26.2021 23.5156 26.3252 23.5156 26.4277C24.9648 26.4277 26.3594 26.4277 27.7607 26.4277C27.7676 26.332 27.7744 26.2637 27.7744 26.1953C27.7744 23.8027 27.8018 21.4102 27.7539 19.0176C27.7402 18.2109 27.624 17.377 27.3984 16.5977C26.8857 14.8271 25.6895 13.7129 23.8506 13.4121C21.957 13.0977 20.3232 13.5557 19.1748 15.2236C19.1475 15.2646 19.1064 15.2852 19.0176 15.3672C19.0312 14.7588 19.0312 14.2188 19.0312 13.6719ZM12.4004 26.4414C12.4072 26.3525 12.4209 26.2842 12.4209 26.2158C12.4209 22.1143 12.4209 18.0127 12.4277 13.9111C12.4277 13.6514 12.3252 13.6172 12.0996 13.6172C10.8896 13.624 9.68652 13.6172 8.47656 13.624C8.37402 13.624 8.27832 13.6377 8.16895 13.6445C8.16895 17.9238 8.16895 22.1758 8.16895 26.4414C9.58398 26.4414 10.9717 26.4414 12.4004 26.4414ZM10.3223 7.45117C9.20117 7.45117 8.30566 8.03223 8.00488 8.96191C7.58105 10.2949 8.3877 11.6143 9.77539 11.833C11.0605 12.0381 12.1748 11.4844 12.5508 10.4453C13.1182 8.93457 12.0176 7.45801 10.3223 7.45117Z" fill="#00E0C7"/>
</svg>
