<svg width="35" height="35" viewBox="0 0 35 35" fill="none" xmlns="http://www.w3.org/2000/svg">
<path d="M32.8809 35C22.627 35 12.373 35 2.11914 35C1.45605 34.8086 0.84082 34.5283 0.464844 33.9199C0.273438 33.5986 0.150391 33.2295 0 32.8809C0 22.627 0 12.373 0 2.11914C0.164063 1.57227 0.348633 1.01855 0.820312 0.683594C1.2168 0.40332 1.68164 0.225586 2.11914 0C12.373 0 22.627 0 32.8809 0C33.5439 0.18457 34.1592 0.47168 34.5352 1.08008C34.7334 1.40137 34.8496 1.77051 35 2.11914C35 12.373 35 22.627 35 32.8809C34.8086 33.5439 34.5283 34.1592 33.9199 34.5352C33.5986 34.7266 33.2295 34.8496 32.8809 35ZM17.5273 7.39648C17.5273 7.4375 17.5273 7.47852 17.5273 7.51953C16.0781 7.51953 14.6357 7.49219 13.1865 7.52637C12.0244 7.55371 10.9033 7.82715 9.91895 8.49023C8.27832 9.59766 7.57422 11.2314 7.5332 13.1318C7.47168 16.0439 7.49902 18.9629 7.52637 21.875C7.54004 23.0166 7.83398 24.1104 8.4834 25.0742C9.59082 26.7148 11.2246 27.4189 13.125 27.46C16.0371 27.5215 18.9561 27.5146 21.8682 27.46C23.4814 27.4326 24.9307 26.8994 26.0449 25.6553C27.0293 24.5547 27.4326 23.2285 27.46 21.793C27.5146 19.4004 27.5215 17.0078 27.5215 14.6152C27.5215 13.9111 27.4668 13.2002 27.3984 12.5029C27.125 9.78906 25.1836 7.82031 22.4629 7.59473C20.8359 7.46484 19.1816 7.45801 17.5273 7.39648Z" fill="#00E0C7"/>
<path d="M25.7715 17.493C25.7305 19.0174 25.7236 20.5487 25.6348 22.0663C25.5117 24.1649 24.1787 25.5663 22.0801 25.621C19.0449 25.703 16.0029 25.703 12.9609 25.621C10.8145 25.5663 9.44044 24.1923 9.37892 22.0321C9.29689 18.9833 9.32423 15.9276 9.37892 12.8788C9.40626 11.5594 10.0078 10.4657 11.2315 9.81628C11.9219 9.45397 12.6807 9.31725 13.4463 9.31725C16.3174 9.31725 19.1885 9.28307 22.0527 9.37194C24.1787 9.4403 25.4707 10.8143 25.6348 12.9403C25.6553 13.1659 25.6826 13.3915 25.6826 13.6239C25.6895 14.909 25.6826 16.201 25.6826 17.4862C25.7168 17.4862 25.7441 17.493 25.7715 17.493ZM22.6543 17.4862C22.6475 14.6356 20.3506 12.3456 17.5 12.3456C14.6426 12.3387 12.332 14.6561 12.3389 17.5135C12.3457 20.3641 14.6426 22.6542 17.4932 22.661C20.3506 22.661 22.668 20.3436 22.6543 17.4862ZM24.0625 12.12C24.0557 11.4637 23.5225 10.9374 22.8662 10.9305C22.1895 10.9305 21.6563 11.4706 21.6631 12.1473C21.6699 12.8241 22.21 13.3436 22.8936 13.3299C23.5498 13.3231 24.0693 12.7831 24.0625 12.12Z" fill="#00E0C7"/>
<path d="M17.5 14.1504C19.3457 14.1504 20.8428 15.6475 20.8496 17.4863C20.8564 19.3457 19.3457 20.8496 17.4863 20.8428C15.6475 20.8359 14.1504 19.332 14.1504 17.4863C14.1572 15.6543 15.6543 14.1504 17.5 14.1504Z" fill="#00E0C7"/>
</svg>
