<svg width="202" height="72" viewBox="0 0 202 72" fill="none" xmlns="http://www.w3.org/2000/svg">
<path d="M36.7965 6.08068C20.7613 4.05379 6.02019 14.1319 1.74414 29.1647C10.1274 37.4412 35.7275 39.2992 61.8902 24.3227C57.3328 14.695 48.1618 7.54454 36.7965 6.08068Z" fill="url(#paint0_radial_23_410)"/>
<path d="M64.197 31.2478C47.2053 44.0848 23.5745 57.3722 5.17627 54.7823C7.37056 58.4419 10.2963 61.5949 13.7846 64.1285C34.4335 61.426 51.7064 46.5058 64.6471 33.8377C64.5346 32.9932 64.4221 32.1486 64.197 31.2478Z" fill="url(#paint1_radial_23_410)"/>
<path d="M64.8158 34.9639C57.1077 45.3235 39.5534 64.9731 22.2241 68.5202C24.2496 69.1958 26.3876 69.7588 28.6382 70.0403C46.305 72.2924 62.4527 59.7933 64.7033 42.1706C64.9846 39.7496 65.0409 37.3286 64.8158 34.9639Z" fill="url(#paint2_radial_23_410)"/>
<path d="M76.8567 17.116C72.2993 20.7194 67.5732 23.816 62.7907 26.5748C40.5103 39.2992 17.2171 42.5084 0.450439 37.9479C0.450439 41.6076 1.01307 45.1547 2.19461 48.5328C19.974 52.474 42.1419 42.9589 63.4659 28.5454C68.0233 25.4488 72.5244 22.1269 76.9692 18.6925C79.051 16.4967 78.8259 15.8774 76.8567 17.116Z" fill="url(#paint3_radial_23_410)"/>
<path d="M36.9653 19.0865C35.2774 18.7487 36.9653 17.3974 36.1776 17.0596C35.3899 16.7218 35.5024 18.073 34.0396 18.5234C32.5767 18.9739 33.5332 17.3974 32.858 16.215C32.1266 15.0327 29.9886 15.089 29.8198 15.5957C29.651 16.1024 29.3134 16.2713 29.3134 17.2285C29.3134 18.1856 30.6638 18.5797 28.8633 18.9739C27.1191 19.368 28.5257 19.7621 28.2444 20.3814C27.9631 21.0008 27.5692 20.8318 27.513 20.0999C27.513 19.368 27.738 18.2982 25.4875 18.2419C23.2369 18.1856 22.8994 15.9898 23.5183 15.089C24.1934 14.1882 25.0374 14.7512 25.7125 14.526C26.3877 14.3008 26.0501 13.5125 27.0066 13.6251C27.9631 13.7377 29.0884 13.231 28.8071 12.2739C28.5257 11.2604 27.513 12.3302 26.5002 12.6117C25.4875 12.8932 26.669 12.3302 25.4312 11.8234C24.1934 11.373 24.3622 12.668 23.7996 13.0058C23.2369 13.3436 23.0682 12.8932 21.9991 12.7806C20.9301 12.668 19.6361 12.8932 18.7358 13.3436C17.8356 13.7377 15.9789 13.0058 14.6848 12.6117C12.5468 14.1318 10.5776 15.9335 8.88967 17.9604C9.05846 18.4108 9.22725 18.9176 9.33978 19.368C9.73363 21.1134 9.67736 20.2688 10.1275 21.6201C10.5776 22.9713 9.78989 24.8856 8.72088 26.6873C7.65186 28.489 8.83341 27.4756 9.73363 28.7705C10.6338 30.0655 9.73362 29.5024 9.84615 30.1781C9.90242 30.6285 10.2963 31.5293 10.7464 32.6554C10.9152 32.7117 11.1402 32.768 11.309 32.8243C10.8026 31.3041 11.084 30.5159 11.4215 31.3604C11.5903 31.8672 11.9279 32.3739 12.3218 33.0495C13.8971 33.4436 15.6976 33.7251 17.6668 33.9503C17.9481 33.4436 18.342 33.0495 18.8484 33.0495C20.3112 33.1058 19.5798 33.1621 21.0426 32.768C22.5055 32.4302 21.8303 32.6554 22.4492 32.8243C22.8431 32.9369 23.2932 33.4436 24.0246 34.1192C24.6998 34.1192 25.375 34.0629 26.1064 34.0066C25.9376 33.331 25.7125 32.5428 25.6563 32.036C25.5438 30.6285 27.2317 30.7411 28.0194 29.5587C28.8071 28.3764 29.8761 27.6445 31.0576 26.7436C32.2391 25.8428 31.9016 25.7865 33.1956 25.7302C34.4897 25.6739 33.477 26.1806 34.4334 26.1806C35.3899 26.1806 35.9526 25.2235 34.4334 24.5478C32.9143 23.9285 35.0523 23.7596 33.8145 23.4781C32.5767 23.1966 32.9706 22.7461 32.9706 22.7461C32.9706 22.7461 36.2339 22.2957 38.2594 22.4646C40.2849 22.6335 39.7222 20.2125 39.6097 19.4243C39.3846 18.7487 38.6532 19.4243 36.9653 19.0865ZM28.1319 11.2041C28.6383 11.2604 31.2827 11.7108 32.1829 12.3865C33.0831 13.0621 32.8581 13.7377 31.564 13.794C30.72 13.8503 29.7073 13.9066 31.0576 14.2445C32.4079 14.6386 32.9706 14.3008 33.3082 15.089C33.6457 15.8772 34.7148 16.4403 34.771 16.1587C34.8273 15.8209 33.4207 15.1453 34.6585 15.3142C35.8963 15.4831 36.2339 15.5957 35.7838 14.9201C35.3337 14.2445 33.702 13.5688 35.1649 13.794C36.6277 13.9629 39.2721 15.9335 36.9653 13.9066C34.6585 11.8797 34.546 12.5554 34.6585 11.8798C34.7148 11.2604 36.0088 11.4293 34.0959 11.0352C32.2392 10.6974 31.9578 11.2041 31.6765 10.5285C31.4515 9.85286 31.5077 8.67051 30.495 9.74026C29.4822 10.81 30.2136 11.7671 29.4822 10.81C28.7508 9.85286 26.8941 10.0781 26.8941 10.0781C27.0066 11.0915 27.6255 11.1478 28.1319 11.2041ZM50.4124 12.2739C46.8115 9.79656 42.5917 8.05117 37.9781 7.26294C38.0343 7.76966 38.1468 8.33269 38.2594 8.95202C38.3156 9.34613 37.6405 9.62765 38.6532 10.1907C39.666 10.7537 41.1288 10.81 40.3411 11.1478C39.5534 11.4856 38.597 11.373 39.1033 11.6545C39.6097 11.9361 40.7912 11.9924 40.3411 12.105C39.891 12.2739 39.1033 11.7108 39.4972 12.8369C39.891 13.9629 39.8348 14.5823 41.2414 16.0461C42.648 17.51 43.6044 15.9335 43.8295 16.7781C44.0545 17.6789 43.2669 18.5234 44.5047 19.0865C45.6862 19.6495 45.9675 18.4108 45.9113 17.1159C45.855 15.8209 44.786 15.7083 46.08 15.089C47.3178 14.526 47.4866 15.1453 48.2181 14.3008C48.9495 13.4562 49.1183 13.231 49.062 12.8932C48.9495 12.8932 49.6247 12.6117 50.4124 12.2739Z" fill="url(#paint4_radial_23_410)"/>
<path d="M91.8789 5.85535C90.4723 5.74274 88.2781 6.75619 87.2091 7.20661C86.1963 7.65703 83.2706 9.90914 80.7387 11.1478C78.1506 12.3864 76.1813 12.3864 74.2684 12.3301C72.3554 12.2738 68.9233 11.7671 65.9976 13.231C63.8033 14.2444 63.4095 14.7512 63.747 15.089C64.0846 15.4268 68.5295 15.4831 70.78 16.0461C73.0868 16.6091 73.8745 17.1159 73.8745 17.1159L75.3937 16.947C75.3937 16.947 71.0051 20.8318 70.2174 21.2822C69.4297 21.7327 68.4169 21.5075 66.0539 21.7327C63.6908 21.9579 62.6218 23.5343 63.1281 23.5906C63.522 23.6469 67.5167 23.9285 69.7673 24.1537C77.1378 18.9175 89.7409 9.28981 89.7409 9.28981C92.3291 7.03771 93.6231 5.74274 91.8789 5.85535ZM82.4829 19.1991C82.9893 19.0301 83.8332 17.51 83.4956 14.9764L79.3321 18.2419C80.1761 18.8612 82.0328 19.368 82.4829 19.1991Z" fill="url(#paint5_radial_23_410)"/>
<path d="M76.5189 0.112549L77.2503 1.57642L78.8257 1.80162L77.6441 2.87138L77.9255 4.44784L76.5189 3.71592L75.1123 4.44784L75.3936 2.87138L74.2683 1.80162L75.8437 1.57642L76.5189 0.112549Z" fill="url(#paint6_radial_23_410)"/>
<path d="M91.5975 13.9067L92.6665 16.0462L95.0296 16.4404L93.3417 18.1294L93.7355 20.4941L91.5975 19.3681L89.4032 20.4941L89.8533 18.1294L88.1091 16.4404L90.5285 16.0462L91.5975 13.9067Z" fill="#00ABE6"/>
<path d="M59.6398 6.13696L60.0336 6.9815L60.9901 7.15041L60.3149 7.76974L60.4837 8.72688L59.6398 8.27646L58.7958 8.72688L58.9646 7.76974L58.2332 7.15041L59.1896 6.9815L59.6398 6.13696Z" fill="url(#paint7_radial_23_410)"/>
<path d="M68.4731 6.13696L68.6982 6.64369L69.2608 6.69999L68.8669 7.09411L68.9795 7.65714L68.4731 7.43192L67.9667 7.65714L68.023 7.09411L67.6292 6.69999L68.1918 6.64369L68.4731 6.13696Z" fill="url(#paint8_radial_23_410)"/>
<path d="M73.7842 26.6131L78.9594 44.1155H83.0924L85.3207 36.9995C85.8238 35.2744 86.2551 33.5493 86.6504 31.393H86.7223C87.1176 33.5134 87.5129 35.1666 88.052 36.9995L90.1365 44.1155H94.2336L99.7323 26.6131H95.3836L93.4429 34.3759C92.9757 36.4245 92.5444 38.3293 92.2929 40.234H92.221C91.8257 38.3293 91.3584 36.4245 90.8194 34.3759L88.6271 26.6131H85.0331L82.733 34.5916C82.2658 36.3885 81.6908 38.3293 81.3314 40.234H81.2595C80.9361 38.3293 80.5407 36.4245 80.1095 34.5556L78.3125 26.6131H73.7842ZM110.059 26.2177C104.776 26.2177 101.002 29.7398 101.002 35.4901C101.002 41.1325 104.847 44.5108 109.771 44.5108C114.228 44.5108 118.756 41.6357 118.756 35.2025C118.756 29.8835 115.27 26.2177 110.059 26.2177ZM109.951 29.4163C112.97 29.4163 114.192 32.579 114.192 35.3104C114.192 38.8683 112.431 41.3122 109.915 41.3122C107.255 41.3122 105.566 38.7605 105.566 35.3822C105.566 32.4712 106.824 29.4163 109.951 29.4163ZM122.402 44.1155H126.823V35.0228C126.823 34.5556 126.859 34.0884 126.93 33.6931C127.326 31.6805 128.799 30.3507 130.884 30.3507C131.423 30.3507 131.818 30.3867 132.214 30.4586V26.3255C131.854 26.2537 131.603 26.2177 131.171 26.2177C129.266 26.2177 127.218 27.4756 126.355 29.9195H126.248L126.068 26.6131H122.258C122.366 28.1585 122.402 29.8835 122.402 32.2555V44.1155ZM135.212 44.1155H139.633V18.5986H135.212V44.1155ZM156.159 18.5986V28.4819H156.087C155.297 27.1881 153.572 26.2177 151.164 26.2177C146.959 26.2177 143.293 29.7038 143.329 35.5619C143.329 40.9528 146.635 44.5108 150.84 44.5108C153.356 44.5108 155.476 43.2889 156.519 41.3482H156.59L156.806 44.1155H160.723C160.652 42.9295 160.58 40.9888 160.58 39.1918V18.5986H156.159ZM156.159 36.5323C156.159 36.9995 156.123 37.4308 156.015 37.8261C155.584 39.7309 154.003 40.9528 152.206 40.9528C149.403 40.9528 147.821 38.6168 147.821 35.3822C147.821 32.1477 149.403 29.632 152.242 29.632C154.254 29.632 155.656 31.0336 156.051 32.7227C156.123 33.0821 156.159 33.5493 156.159 33.9087V36.5323Z" fill="#00ABE6"/>
<path d="M170.249 44.1155V29.9195H173.807V26.6131H170.213V25.8224C170.213 23.4864 171.22 21.5456 173.915 21.5456C175.029 21.5456 175.784 21.6894 176.251 21.941V44.1155H180.672V19.533C179.126 18.7064 176.97 18.2033 174.598 18.2033C171.938 18.2033 169.926 18.8142 168.416 20.0721C166.727 21.4738 165.829 23.666 165.829 25.8583V26.6131H163.457V29.9195H165.829V44.1155H170.249ZM183.317 26.6131L189.75 42.6779C189.929 43.1092 189.965 43.3608 189.965 43.5405C189.965 43.7561 189.893 44.0077 189.714 44.3311C189.103 45.5171 188.132 46.5593 187.27 47.0984C186.371 47.7453 185.473 48.1407 184.718 48.3204L185.725 52.0221C186.803 51.8784 188.6 51.3033 190.361 49.7939C192.409 47.9969 194.026 45.0858 196.434 38.5449L200.819 26.6131H196.111L193.38 35.9573C193.02 37.0714 192.697 38.4011 192.445 39.3715H192.337C192.086 38.4011 191.69 37.0714 191.331 35.9932L188.204 26.6131H183.317Z" fill="#2A3950"/>
<path d="M78.2507 60.3713H78.9939V55.3041H80.7336V54.6792H76.5194V55.3041H78.2507V60.3713ZM83.4338 54.5778C81.9137 54.5778 80.7989 55.7602 80.7989 57.5675C80.7989 59.2903 81.8461 60.4642 83.3578 60.4642C84.8104 60.4642 86.0012 59.417 86.0012 57.4661C86.0012 55.7686 84.9962 54.5778 83.4338 54.5778ZM83.4085 55.1774C84.6331 55.1774 85.2243 56.3598 85.2243 57.4999C85.2243 58.7921 84.5655 59.8646 83.4001 59.8646C82.2346 59.8646 81.5759 58.7752 81.5759 57.5506C81.5759 56.3091 82.1839 55.1774 83.4085 55.1774ZM86.9509 54.6792V58.032C86.9509 59.8055 87.8293 60.4642 88.9947 60.4642C90.2278 60.4642 91.1483 59.7548 91.1483 58.0066V54.6792H90.4051V58.0573C90.4051 59.3072 89.8562 59.8646 89.0201 59.8646C88.26 59.8646 87.6941 59.3241 87.6941 58.0573V54.6792H86.9509ZM92.4274 60.3713H93.1622V57.9053H93.8547C94.5219 57.9306 94.8344 58.2262 95.0033 59.0116C95.1553 59.721 95.282 60.2024 95.3749 60.3713H96.135C96.0167 60.1518 95.8816 59.6028 95.6958 58.8089C95.5607 58.2178 95.2989 57.8124 94.8682 57.6604V57.635C95.4593 57.4323 95.9323 56.9341 95.9323 56.1909C95.9323 55.7433 95.7634 55.3548 95.4847 55.1014C95.1384 54.7889 94.6232 54.6369 93.8378 54.6369C93.3395 54.6369 92.799 54.6876 92.4274 54.7552V60.3713ZM93.1622 55.2703C93.2889 55.2365 93.5338 55.2112 93.8885 55.2112C94.6655 55.2112 95.1975 55.5321 95.1975 56.2669C95.1975 56.9172 94.6992 57.3479 93.9138 57.3479H93.1622V55.2703ZM96.6846 60.0926C96.9887 60.2953 97.5883 60.4642 98.1372 60.4642C99.4801 60.4642 100.122 59.6957 100.122 58.8174C100.122 57.9813 99.6405 57.5168 98.6777 57.1452C97.8923 56.8412 97.5461 56.5794 97.5461 56.0473C97.5461 55.6588 97.8417 55.1943 98.6186 55.1943C99.1338 55.1943 99.5138 55.3548 99.6912 55.4646L99.8939 54.865C99.649 54.7214 99.2183 54.5863 98.644 54.5863C97.5376 54.5863 96.8029 55.245 96.8029 56.1318C96.8029 56.9256 97.3772 57.4155 98.3062 57.7533C99.0747 58.0404 99.3787 58.3529 99.3787 58.8765C99.3787 59.4508 98.9396 59.8477 98.1879 59.8477C97.6812 59.8477 97.2083 59.6873 96.8789 59.4761L96.6846 60.0926ZM105.865 58.5809L106.473 60.3713H107.259L105.316 54.6792H104.438L102.496 60.3713H103.256L103.847 58.5809H105.865ZM103.999 58.0066L104.556 56.3598C104.675 56.0135 104.759 55.6588 104.844 55.3294H104.86C104.945 55.6588 105.029 55.9966 105.156 56.3682L105.722 58.0066H103.999ZM108.79 60.3713V57.9391C108.79 56.9932 108.782 56.3091 108.739 55.5913L108.765 55.5828C109.043 56.1993 109.423 56.8496 109.82 57.483L111.628 60.3713H112.371V54.6792H111.678V57.0607C111.678 57.9475 111.695 58.64 111.763 59.4001L111.738 59.4086C111.476 58.8258 111.138 58.2262 110.724 57.559L108.908 54.6792H108.098V60.3713H108.79ZM113.656 60.3544C114.028 60.3967 114.459 60.422 114.991 60.422C116.097 60.422 116.975 60.1349 117.516 59.6028C118.039 59.0792 118.335 58.3191 118.335 57.3901C118.335 56.4696 118.039 55.8108 117.524 55.3463C117.026 54.8903 116.274 54.6369 115.219 54.6369C114.636 54.6369 114.104 54.6876 113.656 54.7636V60.3544ZM114.391 55.2957C114.585 55.2534 114.872 55.2197 115.253 55.2197C116.806 55.2197 117.567 56.0726 117.558 57.4155C117.558 58.9525 116.714 59.8308 115.134 59.8308C114.847 59.8308 114.577 59.8224 114.391 59.7971V55.2957ZM121.805 60.3713H122.549V55.3041H124.288V54.6792H120.074V55.3041H121.805V60.3713ZM124.922 60.3713H125.657V57.9053H126.35C127.017 57.9306 127.329 58.2262 127.498 59.0116C127.65 59.721 127.777 60.2024 127.87 60.3713H128.63C128.512 60.1518 128.377 59.6028 128.191 58.8089C128.056 58.2178 127.794 57.8124 127.363 57.6604V57.635C127.954 57.4323 128.427 56.9341 128.427 56.1909C128.427 55.7433 128.258 55.3548 127.98 55.1014C127.633 54.7889 127.118 54.6369 126.333 54.6369C125.834 54.6369 125.294 54.6876 124.922 54.7552V60.3713ZM125.657 55.2703C125.784 55.2365 126.029 55.2112 126.383 55.2112C127.16 55.2112 127.692 55.5321 127.692 56.2669C127.692 56.9172 127.194 57.3479 126.409 57.3479H125.657V55.2703ZM132.447 58.5809L133.055 60.3713H133.84L131.898 54.6792H131.02L129.077 60.3713H129.837L130.428 58.5809H132.447ZM130.58 58.0066L131.138 56.3598C131.256 56.0135 131.341 55.6588 131.425 55.3294H131.442C131.526 55.6588 131.611 55.9966 131.738 56.3682L132.303 58.0066H130.58ZM136.294 60.3713L138.33 54.6792H137.544L136.582 57.4915C136.32 58.2347 136.092 58.9525 135.931 59.6113H135.914C135.754 58.9441 135.543 58.2515 135.306 57.483L134.42 54.6792H133.617L135.484 60.3713H136.294ZM141.882 57.0945H139.678V55.2957H142.017V54.6792H138.935V60.3713H142.144V59.7548H139.678V57.7026H141.882V57.0945ZM143.091 60.3713H146.267V59.7548H143.834V54.6792H143.091V60.3713ZM146.796 60.0926C147.1 60.2953 147.7 60.4642 148.249 60.4642C149.591 60.4642 150.233 59.6957 150.233 58.8174C150.233 57.9813 149.752 57.5168 148.789 57.1452C148.004 56.8412 147.658 56.5794 147.658 56.0473C147.658 55.6588 147.953 55.1943 148.73 55.1943C149.245 55.1943 149.625 55.3548 149.803 55.4646L150.005 54.865C149.76 54.7214 149.33 54.5863 148.755 54.5863C147.649 54.5863 146.914 55.245 146.914 56.1318C146.914 56.9256 147.489 57.4155 148.418 57.7533C149.186 58.0404 149.49 58.3529 149.49 58.8765C149.49 59.4508 149.051 59.8477 148.299 59.8477C147.793 59.8477 147.32 59.6873 146.99 59.4761L146.796 60.0926Z" fill="#2A3950"/>
<defs>
<radialGradient id="paint0_radial_23_410" cx="0" cy="0" r="1" gradientUnits="userSpaceOnUse" gradientTransform="translate(9.52036 14.842) scale(46.361 46.3929)">
<stop stop-color="#0086CC"/>
<stop offset="0.9995" stop-color="#0062AF"/>
</radialGradient>
<radialGradient id="paint1_radial_23_410" cx="0" cy="0" r="1" gradientUnits="userSpaceOnUse" gradientTransform="translate(55.4731 40.5726) scale(43.6776 43.7076)">
<stop stop-color="#FDB913"/>
<stop offset="0.9995" stop-color="#F15623"/>
</radialGradient>
<radialGradient id="paint2_radial_23_410" cx="0" cy="0" r="1" gradientUnits="userSpaceOnUse" gradientTransform="translate(61.0248 40.7642) scale(42.0176 42.0465)">
<stop stop-color="#B2D33E"/>
<stop offset="0.9995" stop-color="#62B16B"/>
</radialGradient>
<radialGradient id="paint3_radial_23_410" cx="0" cy="0" r="1" gradientUnits="userSpaceOnUse" gradientTransform="translate(18.403 41.7583) scale(53.8249 53.8619)">
<stop stop-color="#B95AA2"/>
<stop offset="0.6853" stop-color="#6A2C91"/>
<stop offset="1" stop-color="#2F2956"/>
</radialGradient>
<radialGradient id="paint4_radial_23_410" cx="0" cy="0" r="1" gradientUnits="userSpaceOnUse" gradientTransform="translate(17.5482 13.9993) rotate(7.30125) scale(25.041 25.0577)">
<stop stop-color="#AFD89F"/>
<stop offset="0.9995" stop-color="#0093B2"/>
</radialGradient>
<radialGradient id="paint5_radial_23_410" cx="0" cy="0" r="1" gradientUnits="userSpaceOnUse" gradientTransform="translate(82.7657 7.20126) scale(14.2671 14.277)">
<stop stop-color="#6A2C91"/>
<stop offset="0.1458" stop-color="#5E2B81"/>
<stop offset="0.4142" stop-color="#4A2B6E"/>
<stop offset="0.6557" stop-color="#3C2A60"/>
<stop offset="0.8592" stop-color="#322958"/>
<stop offset="1" stop-color="#2F2956"/>
</radialGradient>
<radialGradient id="paint6_radial_23_410" cx="0" cy="0" r="1" gradientUnits="userSpaceOnUse" gradientTransform="translate(75.5348 1.05027) scale(3.46624 3.46863)">
<stop stop-color="#6A2C91"/>
<stop offset="0.1458" stop-color="#5E2B81"/>
<stop offset="0.4142" stop-color="#4A2B6E"/>
<stop offset="0.6557" stop-color="#3C2A60"/>
<stop offset="0.8592" stop-color="#322958"/>
<stop offset="1" stop-color="#2F2956"/>
</radialGradient>
<radialGradient id="paint7_radial_23_410" cx="0" cy="0" r="1" gradientUnits="userSpaceOnUse" gradientTransform="translate(59.6277 7.43513) scale(1.3411 1.34203)">
<stop stop-color="#0086CC"/>
<stop offset="0.9995" stop-color="#0062AF"/>
</radialGradient>
<radialGradient id="paint8_radial_23_410" cx="0" cy="0" r="1" gradientUnits="userSpaceOnUse" gradientTransform="translate(68.4505 6.90094) scale(0.797424 0.797979)">
<stop stop-color="#6A2C91"/>
<stop offset="0.1458" stop-color="#5E2B81"/>
<stop offset="0.4142" stop-color="#4A2B6E"/>
<stop offset="0.6557" stop-color="#3C2A60"/>
<stop offset="0.8592" stop-color="#322958"/>
<stop offset="1" stop-color="#2F2956"/>
</radialGradient>
</defs>
</svg>
