<svg width="338" height="196" viewBox="0 0 338 196" fill="none" xmlns="http://www.w3.org/2000/svg">
<path d="M266.659 73.8795H126.109C126.109 73.8795 115.772 74.0526 108.214 68.0813C108.214 68.0813 102.655 66.9563 105.087 70.4179C107.259 73.5334 115.337 76.9949 122.46 77.5142C129.583 78.0334 245.55 77.5142 245.55 77.5142C245.55 77.5142 248.677 86.3413 256.495 91.101C257.451 91.7068 258.754 91.0144 258.754 89.8894V78.3796H266.572L266.659 73.8795Z" fill="#001124"/>
<g opacity="0.32">
<path opacity="0.32" d="M258.233 89.6298C250.415 84.9566 247.288 76.043 247.288 76.043C247.288 76.043 131.321 76.5622 124.198 76.043C117.075 75.5237 108.997 72.0621 106.825 68.9467C106.565 68.514 106.391 68.2544 106.304 67.9082C105.001 67.9947 103.698 68.4274 105.088 70.4179C107.259 73.5333 115.338 76.9949 122.461 77.5141C129.584 78.0334 245.551 77.5141 245.551 77.5141C245.551 77.5141 248.678 86.3412 256.496 91.1009C257.452 91.7067 258.755 91.0144 258.755 89.8894V89.8028C258.581 89.7163 258.407 89.7163 258.233 89.6298Z" fill="#001124"/>
</g>
<path d="M225.919 73.1887H171.28C169.89 73.1887 168.761 72.0637 168.761 70.6791V55.7077C168.761 54.323 169.89 53.198 171.28 53.198H225.919C227.309 53.198 228.438 54.323 228.438 55.7077V70.7656C228.438 72.1503 227.309 73.1887 225.919 73.1887Z" fill="#BD2728"/>
<path d="M170.845 73.1871H177.273L168.847 64.7927V71.1967C168.847 72.3217 169.716 73.1871 170.845 73.1871Z" fill="#821B1C"/>
<path d="M168.848 55.1884V60.2943L175.971 53.198H170.846C169.717 53.198 168.848 54.0634 168.848 55.1884Z" fill="#821B1C"/>
<path d="M228.437 71.1965V65.8311L221.054 73.187H226.439C227.569 73.187 228.437 72.3216 228.437 71.1965Z" fill="#821B1C"/>
<path d="M226.439 53.1973H222.357L228.437 59.2551V55.1877C228.437 54.0627 227.569 53.1973 226.439 53.1973Z" fill="#821B1C"/>
<path d="M228.437 61.1579C225.918 61.331 223.486 61.331 220.967 61.504L213.496 61.6771C208.545 61.7637 203.507 61.8502 198.555 61.8502C193.604 61.8502 188.566 61.8502 183.614 61.6771L176.144 61.504C173.625 61.4175 171.192 61.331 168.673 61.1579C171.192 60.9848 173.625 60.9848 176.144 60.8117L183.614 60.6387C188.566 60.5521 193.604 60.4656 198.555 60.4656C203.507 60.4656 208.545 60.4656 213.496 60.6387L220.967 60.8117C223.399 60.9848 225.918 60.9848 228.437 61.1579Z" fill="#A62223"/>
<path d="M184.744 53.0232H180.227V73.2736H184.744V53.0232Z" fill="#4A1616"/>
<path d="M217.84 53.0232H213.323V73.2736H217.84V53.0232Z" fill="#4A1616"/>
<path d="M206.113 61.0713V65.5714H191.693V61.0713" stroke="#4A1616" stroke-width="2.9834" stroke-miterlimit="10" stroke-linecap="round" stroke-linejoin="round"/>
<path opacity="0.28" d="M211.76 53.198C209.849 62.1982 201.771 69.0348 192.128 69.0348H168.848V71.2849C168.848 72.3233 169.717 73.1887 170.759 73.1887H226.614C227.657 73.1887 228.438 72.4099 228.438 71.3714V55.0153C228.438 53.9769 227.57 53.198 226.614 53.198H211.76Z" fill="#BD2728"/>
<path d="M218.535 33.2923H173.625C172.496 33.2923 171.54 32.3404 171.54 31.2154V18.8401C171.54 17.7151 172.496 16.7632 173.625 16.7632H218.535C219.664 16.7632 220.62 17.7151 220.62 18.8401V31.2154C220.533 32.3404 219.577 33.2923 218.535 33.2923Z" fill="#D6AC18"/>
<path d="M173.19 33.2923H178.489L171.54 26.3691V31.6481C171.54 32.5135 172.235 33.2923 173.19 33.2923Z" fill="#A38312"/>
<path d="M171.54 18.494V22.7344L177.36 16.9363H173.19C172.235 16.8497 171.54 17.542 171.54 18.494Z" fill="#A38312"/>
<path d="M220.533 31.6482V27.2346L214.539 33.2059H218.969C219.838 33.2924 220.533 32.5136 220.533 31.6482Z" fill="#A38312"/>
<path d="M218.882 16.8496H215.581L220.533 21.7824V18.4939C220.533 17.5419 219.838 16.8496 218.882 16.8496Z" fill="#A38312"/>
<path d="M220.533 23.34C218.448 23.4266 216.45 23.5131 214.365 23.5997L208.198 23.7727C204.115 23.8593 200.032 23.8593 195.863 23.8593C191.78 23.8593 187.697 23.8593 183.528 23.7727L177.534 23.5997C175.449 23.5131 173.451 23.4266 171.366 23.34C173.451 23.2535 175.449 23.167 177.534 23.0804L183.701 22.9073C187.784 22.8208 191.867 22.8208 196.036 22.8208C200.119 22.8208 204.202 22.8208 208.371 22.9073L214.539 23.0804C216.45 23.167 218.448 23.2535 220.533 23.34Z" fill="#A38312"/>
<path d="M202.204 23.2537V26.9749H190.39V23.2537" stroke="#6D4E31" stroke-width="2.4527" stroke-miterlimit="10" stroke-linecap="round" stroke-linejoin="round"/>
<path d="M232.174 53.1982H177.535C176.145 53.1982 175.016 52.0731 175.016 50.6885V35.6305C175.016 34.2459 176.145 33.1208 177.535 33.1208H232.174C233.564 33.1208 234.693 34.2459 234.693 35.6305V50.6885C234.606 52.0731 233.477 53.1982 232.174 53.1982Z" fill="#AD7D59"/>
<path d="M234.605 41.1672C232.086 41.3403 229.654 41.3403 227.134 41.5133L219.664 41.6864C214.713 41.773 209.674 41.8595 204.723 41.8595C199.771 41.8595 194.733 41.8595 189.782 41.6864L182.311 41.5133C179.792 41.4268 177.36 41.3403 174.841 41.1672C177.36 40.9941 179.792 40.9941 182.311 40.821L189.782 40.6479C194.733 40.5614 199.771 40.4749 204.723 40.4749C209.674 40.4749 214.713 40.4749 219.664 40.6479L227.134 40.821C229.654 40.9076 232.086 40.9941 234.605 41.1672Z" fill="#70513A"/>
<path d="M190.998 32.946H186.481V53.1964H190.998V32.946Z" fill="#4A1616"/>
<path d="M224.007 32.946H219.49V53.1964H224.007V32.946Z" fill="#4A1616"/>
<path d="M212.28 40.9941V45.4942H197.86V40.9941" stroke="#4A1616" stroke-width="2.9834" stroke-miterlimit="10" stroke-linecap="round" stroke-linejoin="round"/>
<path opacity="0.28" d="M217.927 33.2083C216.016 42.2084 207.937 49.0451 198.295 49.0451H174.928V51.2951C174.928 52.3336 175.797 53.199 176.839 53.199H232.694C233.737 53.199 234.519 52.4201 234.519 51.3817V35.0256C234.519 33.9871 233.65 33.2083 232.694 33.2083H217.927Z" fill="#AD7D59"/>
<path d="M174.32 39.0068L144.612 73.7094C143.83 74.5748 142.527 74.6613 141.659 73.969L132.016 65.7477C131.148 64.9688 131.061 63.6707 131.756 62.8053L161.464 28.1028C162.246 27.2374 163.549 27.1508 164.418 27.8431L174.06 36.0644C175.015 36.8433 175.102 38.1414 174.32 39.0068Z" fill="#6D4E31"/>
<path d="M144.351 74.0527L147.825 69.9854L137.923 70.7642L142.005 74.2258C142.7 74.8316 143.83 74.7451 144.351 74.0527Z" fill="#402E1D"/>
<path d="M131.755 65.4852L135.056 68.2545L134.361 59.8601L131.581 63.1486C130.973 63.8409 131.06 64.8794 131.755 65.4852Z" fill="#402E1D"/>
<path d="M174.407 36.3214L171.019 33.4656L171.714 42.1196L174.58 38.7445C175.188 37.9657 175.102 36.9272 174.407 36.3214Z" fill="#402E1D"/>
<path d="M161.811 27.8414L159.639 30.4376L166.762 29.8318L164.156 27.6683C163.461 27.0625 162.419 27.149 161.811 27.8414Z" fill="#402E1D"/>
<path d="M167.979 30.8691C166.676 32.5134 165.373 34.1577 164.156 35.8019L160.247 40.6482C157.641 43.8502 154.949 47.0521 152.256 50.2541C149.563 53.3696 146.783 56.5716 144.003 59.687L139.834 64.3602C138.444 65.9179 137.054 67.4756 135.577 68.9468C136.88 67.3025 138.183 65.6583 139.4 64.014L143.309 59.1678C145.915 55.9658 148.607 52.7638 151.3 49.5618C153.993 46.4464 156.773 43.2444 159.553 40.1289L163.722 35.4558C165.112 33.9846 166.502 32.4269 167.979 30.8691Z" fill="#4D3722"/>
<path d="M139.028 54.1438L136.548 57.0415L149.505 68.0464L151.985 65.1486L139.028 54.1438Z" fill="#4A1616"/>
<path d="M157.03 33.1663L154.55 36.064L167.507 47.0688L169.987 44.1711L157.03 33.1663Z" fill="#4A1616"/>
<path d="M155.817 44.9753L158.684 47.485L150.866 56.5717L147.999 54.1486" stroke="#4A1616" stroke-width="2.4988" stroke-miterlimit="10" stroke-linecap="round" stroke-linejoin="round"/>
<path opacity="0.28" d="M153.819 37.1001C158.51 43.2444 158.51 52.0715 153.298 58.1293L140.615 72.9277L142.092 74.1392C142.787 74.745 143.83 74.6585 144.351 73.9662L174.667 38.4847C175.188 37.8789 175.101 36.927 174.493 36.3212L164.069 27.4076C163.461 26.8884 162.419 26.9749 161.898 27.5807L153.819 37.1001Z" fill="#6D4E31"/>
<path d="M208.979 75.7834C208.979 75.7834 215.06 38.225 218.448 16.5034" stroke="#001124" stroke-width="2.3756" stroke-miterlimit="10" stroke-linecap="round"/>
<path d="M191.432 75.7834C191.432 75.7834 180.835 38.225 177.36 16.5034" stroke="#001124" stroke-width="2.3756" stroke-miterlimit="10" stroke-linecap="round"/>
<path d="M169.629 75.524C169.629 75.524 161.029 49.3889 158.162 31.1289" stroke="#001124" stroke-width="2" stroke-miterlimit="10" stroke-linecap="round"/>
<path d="M215.06 171.583L290.808 168.468C290.808 168.468 258.754 123.38 234.344 131.515C210.022 139.65 215.06 171.583 215.06 171.583Z" fill="#141414"/>
<path d="M27.9497 172.016L107.954 173.314C107.954 173.314 78.9403 126.236 54.0965 132.727C29.1658 139.131 27.9497 172.016 27.9497 172.016Z" fill="#141414"/>
<path d="M85.3721 164.722C87.5733 151.182 78.3381 138.435 64.7447 136.252C51.1513 134.07 38.3472 143.277 36.146 156.818C33.9448 170.358 43.18 183.105 56.7734 185.288C70.3668 187.47 83.1709 178.263 85.3721 164.722Z" fill="url(#paint0_linear_21_18)"/>
<path opacity="0.51" d="M60.6983 135.929C57.2236 135.929 53.9227 136.621 50.9692 137.919C52.7934 137.486 54.7045 137.227 56.6156 137.227C69.6455 137.227 80.2432 147.785 80.2432 160.766C80.2432 173.747 69.6455 184.305 56.6156 184.305C54.6176 184.305 52.7934 184.045 50.9692 183.612C53.9227 184.91 57.2236 185.603 60.6983 185.603C74.4232 185.603 85.6289 174.526 85.6289 160.766C85.6289 147.006 74.51 135.929 60.6983 135.929Z" fill="#343739"/>
<path d="M74.749 163.43C76.2355 155.732 71.176 148.297 63.4483 146.823C55.7206 145.349 48.251 150.394 46.7645 158.091C45.278 165.789 50.3375 173.224 58.0652 174.698C65.793 176.172 73.2625 171.127 74.749 163.43Z" stroke="#90999E" stroke-width="3.1457" stroke-miterlimit="10"/>
<path d="M68.1688 160.766C68.1688 164.833 64.8679 168.208 60.6983 168.208C56.6156 168.208 53.2278 164.92 53.2278 160.766C53.2278 156.698 56.5287 153.323 60.6983 153.323C64.8679 153.323 68.1688 156.612 68.1688 160.766Z" fill="#90999E"/>
<path d="M60.6982 146.487V174.958" stroke="#90999E" stroke-width="3.1457" stroke-miterlimit="10"/>
<path d="M46.4521 160.766H75.0312" stroke="#90999E" stroke-width="3.1457" stroke-miterlimit="10"/>
<path d="M50.448 170.631L70.601 150.468" stroke="#90999E" stroke-width="3.1457" stroke-miterlimit="10"/>
<path d="M50.6218 150.727L70.7748 170.804" stroke="#90999E" stroke-width="3.1457" stroke-miterlimit="10"/>
<path d="M71.991 149.948C73.9021 152.544 74.9445 155.66 74.9445 159.035C74.9445 167.602 67.9083 174.612 59.3085 174.612C54.8783 174.612 50.8825 172.795 48.0159 169.852C50.8825 173.747 55.4864 176.343 60.6984 176.343C69.2981 176.343 76.3343 169.333 76.3343 160.766C76.3343 156.525 74.6839 152.718 71.991 149.948Z" fill="#90999E"/>
<g opacity="0.49">
<path opacity="0.49" d="M50.1874 141.121C48.3632 142.506 46.7127 144.063 45.236 145.708C43.7593 147.352 42.4563 149.169 41.4139 151.073C40.3715 152.977 39.5028 155.054 38.9816 157.218C38.6341 158.256 38.4604 159.381 38.2867 160.506C38.1129 161.025 38.1129 161.631 38.1129 162.15C38.0261 162.756 38.0261 163.275 37.9392 163.881C37.8523 163.275 37.7655 162.756 37.6786 162.15C37.5917 161.545 37.5049 161.025 37.5049 160.42V158.689C37.5049 158.083 37.6786 157.564 37.6786 156.958C37.7655 155.746 38.1998 154.708 38.4604 153.496C38.6341 152.977 38.8947 152.371 39.1553 151.852C39.3291 151.333 39.6765 150.814 39.9371 150.294C41.0664 148.217 42.5431 146.313 44.2805 144.756C46.1047 143.285 48.1026 141.986 50.1874 141.121Z" fill="white"/>
</g>
<path d="M271.464 165.171C273.963 151.682 265.011 138.737 251.468 136.258C237.926 133.78 224.921 142.706 222.422 156.196C219.923 169.686 228.875 182.631 242.418 185.109C255.96 187.588 268.965 178.661 271.464 165.171Z" fill="url(#paint1_linear_21_18)"/>
<path opacity="0.51" d="M246.94 135.928C243.465 135.928 240.164 136.621 237.211 137.919C239.035 137.486 240.946 137.227 242.857 137.227C255.887 137.227 266.485 147.784 266.485 160.765C266.485 173.746 255.887 184.304 242.857 184.304C240.859 184.304 239.035 184.045 237.211 183.612C240.164 184.91 243.465 185.602 246.94 185.602C260.665 185.602 271.871 174.525 271.871 160.765C271.784 147.006 260.665 135.928 246.94 135.928Z" fill="#343739"/>
<path d="M260.59 164.809C262.875 157.308 258.622 149.39 251.09 147.124C243.558 144.857 235.6 149.1 233.315 156.601C231.03 164.101 235.283 172.019 242.815 174.286C250.347 176.552 258.305 172.309 260.59 164.809Z" stroke="#90999E" stroke-width="3.1457" stroke-miterlimit="10"/>
<path d="M254.323 160.766C254.323 164.833 251.022 168.208 246.853 168.208C242.77 168.208 239.382 164.92 239.382 160.766C239.382 156.698 242.683 153.323 246.853 153.323C251.022 153.323 254.323 156.612 254.323 160.766Z" fill="#90999E"/>
<path d="M246.94 146.486V174.958" stroke="#90999E" stroke-width="3.1457" stroke-miterlimit="10"/>
<path d="M232.607 160.765H261.186" stroke="#90999E" stroke-width="3.1457" stroke-miterlimit="10"/>
<path d="M236.603 170.631L256.756 150.467" stroke="#90999E" stroke-width="3.1457" stroke-miterlimit="10"/>
<path d="M236.777 150.727L256.93 170.804" stroke="#90999E" stroke-width="3.1457" stroke-miterlimit="10"/>
<path d="M258.146 149.948C260.057 152.544 261.099 155.66 261.099 159.035C261.099 167.602 254.063 174.612 245.463 174.612C241.033 174.612 237.037 172.795 234.171 169.852C237.037 173.747 241.641 176.343 246.853 176.343C255.453 176.343 262.489 169.333 262.489 160.766C262.489 156.525 260.839 152.717 258.146 149.948Z" fill="#90999E"/>
<g opacity="0.49">
<path opacity="0.49" d="M236.429 141.121C234.605 142.505 232.954 144.063 231.478 145.707C230.001 147.352 228.698 149.169 227.656 151.073C226.613 152.977 225.745 155.054 225.223 157.217C224.876 158.256 224.702 159.381 224.528 160.506C224.355 161.025 224.355 161.631 224.355 162.15C224.268 162.756 224.268 163.275 224.181 163.881C224.094 163.275 224.007 162.756 223.92 162.15C223.833 161.544 223.747 161.025 223.747 160.419V158.688C223.747 158.083 223.92 157.563 223.92 156.958C224.007 155.746 224.442 154.708 224.702 153.496C224.876 152.977 225.136 152.371 225.397 151.852C225.571 151.333 225.918 150.813 226.179 150.294C227.308 148.217 228.785 146.313 230.522 144.756C232.259 143.284 234.257 141.986 236.429 141.121Z" fill="white"/>
</g>
<path d="M29.3396 148.996C29.3396 148.996 19.958 150.727 19.6106 152.631C19.35 154.535 28.7315 154.362 28.7315 154.362L29.3396 148.996Z" fill="#2E2C2B"/>
<path d="M281.078 127.448L288.896 126.928L291.242 129.525L282.989 130.823L281.078 127.448Z" fill="#86AEBA"/>
<path opacity="0.33" d="M288.896 126.928L287.854 127.015C288.115 128.053 287.507 129.179 286.29 129.438L282.468 130.044L282.903 130.909L291.155 129.611L288.896 126.928Z" fill="#86AEBA"/>
<path d="M297.323 164.4H306.009C306.009 164.4 305.314 166.65 304.011 168.381H298.712L297.323 164.4Z" fill="#807A77"/>
<path opacity="0.32" d="M304.967 164.4C304.011 166.218 302.1 167.343 300.015 167.343H298.365L298.712 168.381H304.011C305.401 166.65 306.009 164.4 306.009 164.4H304.967Z" fill="#807A77"/>
<path d="M111.081 110.746C111.081 110.746 109.517 109.188 105.087 109.794C100.657 110.399 56.1814 109.967 38.2001 131.948C38.2001 131.948 33.3355 133.506 30.2952 143.285C27.168 153.064 28.1236 162.756 28.1236 162.756C28.1236 162.756 33.1618 156.958 34.2911 154.448C35.4203 151.939 45.3231 134.804 61.1328 136.534C76.9425 138.265 85.8897 150.554 87.8008 161.371C89.7119 172.189 93.4471 172.535 93.4471 172.535H209.414C209.414 172.535 215.06 173.66 216.797 170.804C218.535 167.949 217.145 151.16 231.652 143.112C246.158 135.063 262.402 139.217 269.525 150.208C276.648 161.198 278.646 169.074 300.102 169.074C300.102 169.074 300.102 158.689 290.46 145.015C290.46 145.015 288.897 137.486 284.64 130.996C280.384 124.419 260.057 105.034 235.126 89.8028C210.196 74.5718 161.29 73.6198 126.456 85.2162L111.081 110.746Z" fill="#6196A6"/>
<path d="M31.8586 139.217C57.1368 118.88 102.22 119.399 102.22 119.399C106.651 115.592 106.737 112.043 105.956 109.707" stroke="#131C30" stroke-width="1.3353" stroke-miterlimit="10"/>
<path d="M179.705 166.996L179.618 146.746V126.496V106.245L179.705 85.9949L180.227 86.5142L158.249 87.12L152.777 87.293C150.953 87.3796 149.128 87.3796 147.304 87.4661C143.656 87.7257 140.094 88.245 136.533 89.1104C133.058 90.0623 129.583 91.2739 126.717 93.3508C125.24 94.3893 124.024 95.6009 122.982 97.0721C121.939 98.5433 120.897 100.101 119.941 101.572C116.032 107.716 112.384 114.034 108.909 120.438L108.996 120.265L108.822 143.458L108.562 166.65L108.301 143.458L108.127 120.265V120.178L108.214 120.092C111.602 113.601 115.164 107.197 119.159 101.053C120.115 99.4952 121.157 98.024 122.2 96.4663C123.242 94.9086 124.632 93.5239 126.196 92.4854C129.236 90.3219 132.798 88.9373 136.359 87.9854C139.921 87.0334 143.656 86.5142 147.304 86.2546C151.039 86.0815 154.601 86.0815 158.336 85.9084L180.313 85.3892H180.835V85.9084L180.661 106.159L180.4 126.409L180.14 146.66L179.705 166.996Z" fill="#131C30"/>
<path d="M236.864 90.7546C237.037 91.7066 237.645 93.0047 239.035 94.5624C242.51 98.4567 257.19 112.303 260.665 112.13C261.62 112.043 262.576 111.265 263.445 110.14C255.887 103.736 246.766 96.9855 236.864 90.7546Z" fill="#061115"/>
<path d="M236.864 90.7546C237.298 92.2258 238.253 93.3508 239.296 94.3893C240.338 95.4278 241.467 96.4663 242.597 97.5048C244.768 99.4952 247.027 101.572 249.285 103.476C251.544 105.466 253.802 107.37 256.148 109.188C257.364 110.053 258.58 111.005 259.883 111.524C260.231 111.697 260.578 111.784 260.839 111.697C261.186 111.697 261.534 111.524 261.794 111.351C262.402 111.005 263.01 110.486 263.445 109.88C263.01 110.486 262.576 111.092 261.968 111.611C261.62 111.87 261.273 112.043 260.926 112.13C260.491 112.217 260.057 112.13 259.709 112.044C258.233 111.524 256.93 110.745 255.627 109.88C253.108 108.149 250.762 106.245 248.504 104.255C246.245 102.264 244.073 100.188 241.989 98.024C240.946 96.899 239.904 95.8605 238.948 94.6489C237.993 93.6105 237.124 92.3124 236.864 90.7546Z" fill="#242424"/>
<path d="M177.621 111.87V93.4374C177.621 93.4374 177.968 88.8508 172.409 88.5912C166.762 88.4181 144.003 89.197 134.361 92.0528C124.719 94.9086 123.937 99.1491 120.463 104.947C116.988 110.745 115.424 114.034 118.551 115.505C121.679 117.063 171.887 116.457 171.887 116.457C171.887 116.457 177.968 117.496 177.621 111.87Z" fill="#061115"/>
<path opacity="0.45" d="M156.686 89.0238L129.236 116.37C130.018 116.37 130.886 116.37 131.668 116.457L159.292 88.9373C158.51 88.9373 157.641 89.0238 156.686 89.0238Z" fill="#061115"/>
<path opacity="0.45" d="M172.322 88.5913C171.627 88.5913 170.671 88.5913 169.542 88.5913L141.397 116.63C143.482 116.63 145.654 116.63 147.738 116.63L175.188 89.2836C174.493 88.8509 173.625 88.5913 172.322 88.5913Z" fill="#061115"/>
<path opacity="0.45" d="M177.621 97.3318L158.25 116.63C159.379 116.63 160.508 116.63 161.55 116.63L177.621 100.62V97.3318Z" fill="#061115"/>
<path opacity="0.45" d="M177.621 108.928L169.976 116.544C170.845 116.544 171.453 116.544 171.714 116.544L177.621 110.659V108.928Z" fill="#061115"/>
<path d="M177.621 111.87V93.4374C177.621 93.4374 177.968 88.8508 172.409 88.5912C166.762 88.4181 144.003 89.197 134.361 92.0528C124.719 94.9086 123.937 99.1491 120.463 104.947C116.988 110.745 115.424 114.034 118.551 115.505C121.679 117.063 171.887 116.457 171.887 116.457C171.887 116.457 177.968 117.496 177.621 111.87Z" stroke="#242424" stroke-width="1.3353" stroke-miterlimit="10"/>
<path d="M196.905 88.7644C196.905 88.7644 215.494 90.6682 225.31 96.4664C235.213 102.265 237.298 107.024 236.342 111.265C235.387 115.505 231.912 116.89 231.912 116.89C231.912 116.89 228.611 116.89 213.583 116.717C198.468 116.544 187.697 116.717 187.697 116.717C187.697 116.717 182.659 116.717 182.659 111.351C182.659 105.986 182.832 91.3606 182.832 91.3606C182.832 91.3606 182.832 88.5047 187.436 88.2451C192.04 87.9855 196.905 88.7644 196.905 88.7644Z" fill="#061115"/>
<path opacity="0.45" d="M213.67 91.9663L188.826 116.717C189.434 116.717 190.216 116.717 191.172 116.717L215.494 92.4855C214.886 92.3125 214.278 92.1394 213.67 91.9663Z" fill="#061115"/>
<path opacity="0.45" d="M225.571 96.6394L205.505 116.63C207.242 116.63 209.153 116.63 211.151 116.717L229.045 98.8894C227.916 98.1106 226.787 97.3317 225.571 96.6394Z" fill="#061115"/>
<path opacity="0.45" d="M233.997 103.303L220.446 116.803C220.88 116.803 221.314 116.803 221.749 116.803L234.518 104.082C234.431 103.822 234.257 103.563 233.997 103.303Z" fill="#061115"/>
<path d="M196.905 88.7644C196.905 88.7644 215.494 90.6682 225.31 96.4664C235.213 102.265 237.298 107.024 236.342 111.265C235.387 115.505 231.912 116.89 231.912 116.89C231.912 116.89 228.611 116.89 213.583 116.717C198.468 116.544 187.697 116.717 187.697 116.717C187.697 116.717 182.659 116.717 182.659 111.351C182.659 105.986 182.832 91.3606 182.832 91.3606C182.832 91.3606 182.832 88.5047 187.436 88.2451C192.04 87.9855 196.905 88.7644 196.905 88.7644Z" stroke="#242424" stroke-width="1.3353" stroke-miterlimit="10"/>
<path d="M244.073 123.986C242.249 123.553 240.425 123.207 238.601 122.948L235.821 122.515L233.041 122.169C231.217 121.909 229.306 121.736 227.482 121.563L224.702 121.303L221.923 121.13C220.098 121.044 218.187 120.871 216.363 120.697L210.804 120.438C207.068 120.178 203.333 120.178 199.598 120.092C184.657 119.746 169.716 119.919 154.775 120.351C151.04 120.438 147.304 120.611 143.569 120.697C139.834 120.871 136.098 120.957 132.363 121.13C124.893 121.563 117.422 121.909 109.952 122.342C102.481 122.861 95.0107 123.207 87.5402 123.813L65.0417 125.371L87.3664 123.207C94.8369 122.515 102.307 122.082 109.778 121.476C113.513 121.13 117.248 120.957 120.984 120.784L132.189 120.178C135.925 120.005 139.66 119.832 143.395 119.659C147.131 119.486 150.866 119.313 154.601 119.226C162.072 119.053 169.542 118.88 177.013 118.88C180.748 118.88 184.483 118.88 188.218 118.967C191.954 119.053 195.689 119.053 199.424 119.226C203.159 119.399 206.895 119.486 210.63 119.746L216.189 120.092C218.014 120.265 219.925 120.438 221.749 120.611L224.529 120.871L227.308 121.217C229.132 121.476 231.043 121.649 232.868 121.909L235.647 122.342L238.427 122.861C240.425 123.121 242.249 123.553 244.073 123.986Z" fill="#131C30"/>
<path d="M180.227 85.3028C184.483 85.0431 188.653 85.1297 192.909 85.3893C197.079 85.7355 201.335 86.2547 205.418 87.1201C209.587 87.9855 213.67 89.024 217.579 90.4952C221.575 91.9663 225.397 93.6971 229.045 95.7741C232.694 97.8511 236.255 100.101 239.643 102.524C243.031 104.947 246.332 107.63 249.546 110.313C252.76 113.082 255.713 115.938 258.667 118.967C261.534 121.996 264.313 125.111 266.832 128.486C264.313 125.198 261.447 122.082 258.58 119.053C255.627 116.111 252.586 113.255 249.372 110.486C246.158 107.803 242.857 105.207 239.469 102.784C235.995 100.447 232.433 98.1972 228.785 96.2068C225.05 94.2164 221.314 92.5721 217.319 91.1009C213.41 89.7163 209.327 88.6778 205.244 87.899C201.161 87.1201 196.992 86.6009 192.822 86.3412C188.653 86.0816 184.483 86.0816 180.313 86.3412L180.227 85.3028Z" fill="#131C30"/>
<path d="M237.558 104.514C239.035 105.38 240.251 106.678 241.12 108.236C241.554 109.014 241.815 109.88 241.902 110.745C241.989 111.611 241.989 112.563 241.728 113.428L241.554 114.12L241.294 114.726C241.12 115.159 240.946 115.505 240.772 115.938C240.338 116.717 239.73 117.409 239.035 118.015C237.645 119.14 235.734 119.572 234.084 119.226C235.734 119.053 237.298 118.447 238.514 117.322C239.643 116.284 240.338 114.726 240.686 113.255C241.033 111.697 240.859 110.14 240.338 108.668C239.73 107.024 238.775 105.639 237.558 104.514Z" fill="#131C30"/>
<path d="M269.178 114.813C269.265 116.198 269.004 117.496 268.657 118.794C268.483 119.486 268.222 120.092 267.875 120.698C267.701 121.044 267.527 121.303 267.354 121.563L267.093 121.996L266.919 122.429C266.745 122.688 266.746 122.948 266.572 123.207C266.572 123.467 266.485 123.727 266.485 124.073C266.398 124.679 266.572 125.284 266.746 125.804C267.093 127.015 267.788 128.14 268.57 129.179C267.44 128.4 266.485 127.361 265.877 126.063C265.269 124.852 265.182 123.121 265.877 121.823L266.137 121.303L266.398 120.871C266.572 120.611 266.745 120.352 266.919 120.005C267.267 119.486 267.527 118.88 267.788 118.275C268.396 117.236 268.83 116.025 269.178 114.813Z" fill="#131C30"/>
<path d="M273.521 123.294C273.608 123.294 273.782 123.294 273.869 123.121L274.824 120.092C274.737 120.005 274.564 119.832 274.477 119.746L273.434 123.034C273.348 123.121 273.434 123.294 273.521 123.294Z" fill="#061115"/>
<path d="M274.563 123.9C274.65 123.9 274.824 123.9 274.911 123.727L275.78 120.957C275.693 120.871 275.519 120.698 275.432 120.611L274.477 123.64C274.303 123.727 274.39 123.9 274.563 123.9Z" fill="#061115"/>
<path d="M275.432 124.678C275.519 124.678 275.693 124.678 275.78 124.505L276.648 121.822C276.561 121.736 276.388 121.563 276.301 121.476L275.345 124.419C275.171 124.505 275.258 124.592 275.432 124.678Z" fill="#061115"/>
<path d="M276.301 125.371C276.388 125.371 276.561 125.371 276.648 125.197L277.517 122.601C277.43 122.515 277.256 122.342 277.169 122.255L276.214 125.024C276.04 125.197 276.127 125.284 276.301 125.371Z" fill="#061115"/>
<path d="M277.864 123.034L276.909 125.89C276.909 125.977 276.909 126.15 277.082 126.236C277.169 126.236 277.343 126.236 277.43 126.063L278.299 123.467C278.038 123.294 277.951 123.207 277.864 123.034Z" fill="#061115"/>
<path d="M278.994 124.246C278.907 124.073 278.733 123.986 278.646 123.813L277.691 126.755C277.691 126.842 277.691 127.015 277.864 127.102C277.951 127.102 278.125 127.102 278.212 126.928L278.994 124.246Z" fill="#061115"/>
<path d="M278.646 127.794C278.733 127.794 278.907 127.794 278.994 127.621L279.776 125.111C279.689 124.938 279.515 124.852 279.428 124.678L278.559 127.448C278.473 127.534 278.559 127.707 278.646 127.794Z" fill="#061115"/>
<path d="M117.422 115.419H117.248C115.077 115.419 113.252 113.601 113.252 111.438C113.252 109.274 115.077 107.457 117.248 107.457H117.422V115.419Z" fill="#575351"/>
<path opacity="0.35" d="M114.295 110.832C114.295 109.62 114.816 108.495 115.772 107.803C114.295 108.409 113.34 109.793 113.34 111.438C113.34 113.601 115.164 115.419 117.335 115.419H117.509V114.726C115.598 114.293 114.295 112.736 114.295 110.832Z" fill="#575351"/>
<path d="M114.556 113.169H112.036C111.602 113.169 111.342 112.822 111.342 112.476C111.342 112.044 111.689 111.784 112.036 111.784H114.556C114.99 111.784 115.251 112.13 115.251 112.476C115.337 112.822 114.99 113.169 114.556 113.169Z" fill="#575351"/>
<path opacity="0.35" d="M114.556 112.476H112.036C111.776 112.476 111.515 112.303 111.428 112.044C111.342 112.13 111.342 112.217 111.342 112.39C111.342 112.823 111.689 113.082 112.036 113.082H114.556C114.99 113.082 115.251 112.736 115.251 112.39C115.251 112.303 115.251 112.13 115.164 112.044C115.077 112.303 114.903 112.476 114.556 112.476Z" fill="#575351"/>
<path d="M275.606 133.419H284.119C284.119 133.419 290.026 139.909 285.856 148.737H276.909L275.606 133.419Z" fill="#D6AC18"/>
<path opacity="0.39" d="M284.119 133.419H282.555C284.032 135.929 285.943 140.861 283.076 147.006H276.735L276.909 148.737H285.856C290.113 139.909 284.119 133.419 284.119 133.419Z" fill="#D6AC18"/>
<path d="M35.1596 135.236C35.1596 135.236 32.3799 135.236 30.5557 135.929C29.9476 136.188 29.4264 136.708 29.2527 137.4C28.9052 138.784 28.2972 141.813 28.5578 145.362C28.5578 145.794 28.9052 146.054 29.3396 146.054H30.99L35.1596 135.236Z" fill="#575351"/>
<path opacity="0.28" d="M29.4264 145.708C29.1658 142.16 29.7739 139.131 30.1214 137.746C30.2951 137.054 30.7294 136.535 31.4244 136.275C32.5536 135.842 34.0304 135.669 34.9859 135.669L35.1596 135.15C35.1596 135.15 32.3799 135.15 30.5557 135.842C29.9476 136.102 29.4264 136.621 29.2527 137.313C28.9052 138.698 28.2972 141.727 28.5578 145.275C28.5578 145.708 28.9052 145.967 29.3396 145.967H29.4264C29.5133 145.881 29.4264 145.794 29.4264 145.708Z" fill="#575351"/>
<path opacity="0.39" d="M170.411 127.621H169.455C167.805 127.621 166.415 126.236 166.415 124.592C166.415 122.948 167.805 121.563 169.455 121.563H170.411C172.061 121.563 173.451 122.948 173.451 124.592C173.451 126.236 172.061 127.621 170.411 127.621Z" fill="#558A9A"/>
<path opacity="0.25" d="M172.061 121.996C172.235 122.342 172.322 122.775 172.322 123.294C172.322 124.938 170.932 126.323 169.281 126.323H168.326C167.718 126.323 167.11 126.15 166.588 125.804C167.11 126.842 168.152 127.534 169.368 127.534H170.324C171.974 127.534 173.364 126.15 173.364 124.506C173.451 123.467 172.93 122.602 172.061 121.996Z" fill="#558A9A"/>
<path d="M163.635 124.938C163.635 124.938 163.201 124.246 165.025 123.813C166.849 123.294 177.707 122.342 178.402 123.38C179.097 124.419 178.576 125.803 177.534 125.63C176.491 125.457 170.758 124.851 167.283 124.938C163.896 125.111 164.243 125.717 163.635 124.938Z" fill="#575351"/>
<path opacity="0.17" d="M178.489 123.467C178.837 124.419 178.229 125.371 177.36 125.284C176.317 125.111 170.584 124.505 167.11 124.592C163.982 124.765 163.982 125.198 163.548 124.765C163.548 124.851 163.635 124.938 163.635 124.938C164.243 125.63 163.896 125.111 167.37 124.938C170.845 124.765 176.578 125.457 177.62 125.63C178.576 125.717 179.184 124.419 178.489 123.467Z" fill="#575351"/>
<path d="M277.517 135.409C271.697 127.88 256.843 126.323 256.843 126.323C256.843 126.323 229.74 122.428 218.013 139.39C208.371 153.15 207.937 167.602 208.024 172.535H209.501C209.501 172.535 215.147 173.66 216.884 170.804C218.621 167.948 217.232 151.16 231.738 143.111C246.245 135.063 262.489 139.217 269.612 150.208C276.04 160.073 278.212 167.429 294.108 168.814C292.892 161.025 282.816 142.246 277.517 135.409Z" fill="#3C8598"/>
<g opacity="0.43">
<path opacity="0.43" d="M253.629 131.255C253.629 131.255 268.483 132.813 274.303 140.342C278.559 145.881 285.943 159.121 289.244 168.208C290.721 168.468 292.284 168.727 294.022 168.9C292.806 161.112 282.729 142.246 277.517 135.409C271.697 127.88 256.843 126.323 256.843 126.323C256.843 126.323 229.74 122.428 218.014 139.39C217.058 140.688 216.276 142.073 215.494 143.458C227.569 127.534 253.629 131.255 253.629 131.255Z" fill="#394665"/>
</g>
<path d="M289.852 156.265V162.583C289.852 162.583 306.965 163.881 310.266 161.025V153.237L289.852 156.265Z" fill="#575351"/>
<path opacity="0.26" d="M289.852 160.246V162.67C289.852 162.67 306.965 163.968 310.266 161.112V158.689C306.878 161.545 289.852 160.246 289.852 160.246Z" fill="#575351"/>
<path d="M292.979 149.083C292.979 149.083 305.922 149.602 309.831 152.631C313.74 155.746 289.852 156.266 289.852 156.266L291.589 154.881C291.589 154.881 304.446 154.102 305.401 152.458C306.357 150.814 293.761 149.948 293.761 149.948L292.979 149.083Z" fill="#2E2C2B"/>
<path d="M74.7709 128.486C59.5693 125.457 47.0605 128.14 38.8951 131.169C38.7214 131.428 38.4608 131.688 38.287 131.948C38.287 131.948 34.5518 133.852 30.3822 143.284C25.6914 153.842 28.0368 172.016 28.0368 172.016C28.0368 172.016 35.681 155.573 36.8103 153.063C37.9396 150.554 45.3232 134.803 61.2198 136.534C77.0295 138.265 85.9767 150.554 87.8878 161.371C89.7988 172.189 93.5341 172.535 93.5341 172.535H107.954C107.085 167.689 100.57 133.678 74.7709 128.486Z" fill="#3C8598"/>
<g opacity="0.31">
<path opacity="0.31" d="M67.7346 131.342C90.4936 135.929 98.2248 162.843 100.31 172.535H107.867C107.085 167.689 100.57 133.592 74.684 128.4C59.4823 125.371 46.9736 128.053 38.8081 131.082C38.6344 131.342 38.3738 131.602 38.2001 131.861C38.2001 131.861 37.9395 131.948 37.5051 132.207C45.3231 130.13 55.7471 128.919 67.7346 131.342Z" fill="#394665"/>
</g>
<path d="M28.9053 148.91C28.9053 148.91 20.7398 149.256 15.9622 153.237V160.333C15.9622 160.333 24.3013 163.448 28.9053 160.333V153.583C28.9053 153.583 16.5702 152.631 22.564 151.073C28.5578 149.602 28.9053 148.91 28.9053 148.91Z" fill="#575351"/>
<g opacity="0.31">
<path opacity="0.31" d="M15.9622 157.823V160.419C15.9622 160.419 24.3013 163.535 28.9053 160.419V157.823C24.3013 160.939 15.9622 157.823 15.9622 157.823Z" fill="#575351"/>
</g>
<path d="M138.009 91.1008L135.664 116.717" stroke="#242424" stroke-width="2.003" stroke-miterlimit="10"/>
<path d="M103.958 173.487C103.958 173.487 100.657 169.593 105.521 166.91C110.386 164.227 208.719 166.91 208.719 166.91C208.719 166.91 212.367 171.324 208.545 172.708C204.636 174.093 103.958 173.487 103.958 173.487Z" fill="#061115"/>
<path d="M108.475 169.073C112.558 168.9 116.64 168.9 120.723 168.727L132.971 168.554C141.137 168.468 149.302 168.468 157.468 168.381C165.633 168.381 173.798 168.381 181.964 168.468L194.038 168.641C198.121 168.727 202.204 168.814 206.286 168.9C202.204 169.073 198.121 169.073 194.038 169.247L181.79 169.42C173.625 169.506 165.459 169.506 157.294 169.593C149.128 169.593 140.963 169.593 132.797 169.506L120.549 169.333C116.64 169.247 112.558 169.247 108.475 169.073Z" fill="#040C0F"/>
<path d="M108.475 170.977C112.558 170.804 116.64 170.804 120.723 170.631L132.971 170.458C141.137 170.371 149.302 170.371 157.468 170.285C165.633 170.285 173.798 170.285 181.964 170.371L194.212 170.545C198.295 170.631 202.377 170.718 206.46 170.804C202.377 170.977 198.295 170.977 194.212 171.15L181.964 171.323C173.798 171.41 165.633 171.41 157.468 171.496C149.302 171.496 141.137 171.496 132.971 171.41L120.723 171.237C116.64 171.15 112.558 171.15 108.475 170.977Z" fill="#040C0F"/>
<path d="M177.968 124.246C177.968 123.813 177.62 123.467 177.186 123.467C176.752 123.467 176.404 123.813 176.404 124.246C176.404 124.678 176.752 125.025 177.186 125.025C177.62 124.938 177.968 124.592 177.968 124.246Z" fill="#75706D"/>
<path opacity="0.43" d="M177.881 123.813C177.881 123.9 177.881 123.986 177.881 123.986C177.881 124.419 177.534 124.765 177.1 124.765C176.839 124.765 176.578 124.592 176.491 124.419C176.578 124.765 176.839 124.938 177.186 124.938C177.621 124.938 177.968 124.592 177.968 124.159C177.968 124.073 177.968 123.9 177.881 123.813Z" fill="#D4C8C4"/>
<path d="M177.36 124.159L177.447 123.9H177.012L177.099 124.159C177.012 124.246 177.012 124.246 177.012 124.332C177.012 124.505 177.099 124.592 177.273 124.592C177.447 124.592 177.534 124.505 177.534 124.332C177.447 124.246 177.447 124.159 177.36 124.159Z" fill="#635F5D"/>
<g opacity="0.33">
<path opacity="0.33" d="M177.447 124.159C177.447 124.246 177.447 124.246 177.447 124.159C177.447 124.332 177.36 124.419 177.186 124.419C177.099 124.419 177.012 124.419 177.012 124.332C177.012 124.419 177.099 124.505 177.273 124.505C177.447 124.505 177.534 124.419 177.534 124.246C177.447 124.246 177.447 124.246 177.447 124.159Z" fill="#635F5D"/>
</g>
<g opacity="0.31">
<path opacity="0.31" d="M100.136 112.303C96.0528 113.255 92.057 114.034 87.9743 114.813C83.9784 115.678 79.8957 116.457 75.8998 117.322C71.904 118.188 67.9081 119.053 63.9123 120.092C59.9164 121.13 56.0074 122.255 52.1853 123.813C55.5731 121.39 59.4821 119.746 63.3911 118.361C65.389 117.669 67.3869 117.063 69.3849 116.457C71.3828 115.938 73.3807 115.419 75.4655 114.986C77.4634 114.553 79.5482 114.207 81.5462 113.861C83.6309 113.601 85.6289 113.255 87.7137 112.995C91.7964 112.563 95.966 112.217 100.136 112.303Z" fill="white"/>
</g>
<path d="M138.271 70.3311H134.536V82.7928H138.271V70.3311Z" fill="#756F6D"/>
<path opacity="0.31" d="M137.488 70.3311V75.4369C137.488 78.3793 136.185 80.8024 134.448 81.4082V82.7928H138.183V70.3311H137.488Z" fill="#756F6D"/>
<path d="M218.535 70.3311H214.799V82.7928H218.535V70.3311Z" fill="#756F6D"/>
<path opacity="0.31" d="M217.84 70.3311V75.4369C217.84 78.3793 216.537 80.8024 214.799 81.4082V82.7928H218.535V70.3311H217.84Z" fill="#756F6D"/>
<path d="M220.359 74.6583H131.06C130.539 74.6583 130.104 74.2256 130.104 73.7063C130.104 73.1871 130.539 72.7544 131.06 72.7544H220.359C220.88 72.7544 221.314 73.1871 221.314 73.7063C221.314 74.2256 220.88 74.6583 220.359 74.6583Z" fill="#756F6D"/>
<path opacity="0.26" d="M220.88 72.8411C220.88 73.3603 220.446 73.793 219.924 73.793H130.626C130.452 73.793 130.278 73.7065 130.104 73.6199C130.104 74.1392 130.539 74.5719 131.06 74.5719H220.359C220.88 74.5719 221.314 74.1392 221.314 73.6199C221.314 73.2738 221.141 73.0141 220.88 72.8411Z" fill="#756F6D"/>
<path d="M220.359 71.4564H131.06C130.539 71.4564 130.104 71.0237 130.104 70.5044C130.104 69.9852 130.539 69.5525 131.06 69.5525H220.359C220.88 69.5525 221.314 69.9852 221.314 70.5044C221.314 71.0237 220.88 71.4564 220.359 71.4564Z" fill="#756F6D"/>
<path opacity="0.26" d="M220.967 69.7266C220.88 70.2458 220.532 70.592 220.011 70.592H130.713C130.539 70.592 130.278 70.5054 130.104 70.4189V70.5054C130.104 71.0247 130.539 71.4574 131.06 71.4574H220.359C220.88 71.4574 221.314 71.0247 221.314 70.5054C221.314 70.1593 221.227 69.8996 220.967 69.7266Z" fill="#756F6D"/>
<path d="M129.236 112.823C129.41 113.601 129.41 114.294 129.497 115.073C129.497 115.419 129.497 115.851 129.41 116.198C129.41 116.544 129.323 116.976 129.236 117.323C129.149 116.976 129.062 116.544 129.062 116.198C129.062 115.851 128.975 115.419 128.975 115.073C129.062 114.294 129.062 113.515 129.236 112.823Z" fill="white"/>
<path d="M127.238 114.986C127.933 114.813 128.541 114.813 129.236 114.726C129.583 114.726 129.931 114.726 130.278 114.813C130.626 114.813 130.973 114.899 131.321 114.986C130.973 115.072 130.626 115.159 130.278 115.159C129.931 115.159 129.583 115.246 129.236 115.246C128.628 115.246 127.933 115.159 127.238 114.986Z" fill="white"/>
<path d="M127.846 114.986C127.846 114.207 128.454 113.601 129.236 113.601C130.018 113.601 130.626 114.207 130.626 114.986C130.626 115.765 130.018 116.371 129.236 116.371C128.541 116.371 127.846 115.765 127.846 114.986Z" fill="url(#paint2_radial_21_18)"/>
<path d="M222.53 95.947C222.791 96.9855 222.878 98.1105 222.878 99.149C222.878 100.187 222.791 101.313 222.53 102.351C222.27 101.313 222.183 100.187 222.183 99.149C222.183 98.1105 222.27 97.072 222.53 95.947Z" fill="white"/>
<path d="M219.664 99.1491C220.619 98.8895 221.575 98.803 222.53 98.803C223.486 98.803 224.441 98.8895 225.397 99.1491C224.441 99.4088 223.486 99.4953 222.53 99.4953C221.575 99.4953 220.619 99.4088 219.664 99.1491Z" fill="white"/>
<path d="M220.532 99.1489C220.532 98.0238 221.401 97.1584 222.53 97.1584C223.66 97.1584 224.528 98.0238 224.528 99.1489C224.528 100.274 223.66 101.139 222.53 101.139C221.401 101.139 220.532 100.274 220.532 99.1489Z" fill="url(#paint3_radial_21_18)"/>
<path d="M118.465 160.16H114.816C114.121 160.16 113.513 159.554 113.513 158.862C113.513 158.169 114.121 157.563 114.816 157.563H118.465C119.159 157.563 119.768 158.169 119.768 158.862C119.768 159.554 119.159 160.16 118.465 160.16Z" fill="#E77C00"/>
<path opacity="0.34" d="M119.334 157.911C119.334 157.997 119.421 158.17 119.421 158.257C119.421 158.949 118.813 159.555 118.118 159.555H114.469C114.122 159.555 113.861 159.468 113.601 159.209C113.775 159.728 114.209 160.074 114.817 160.074H118.465C119.16 160.074 119.768 159.468 119.768 158.776C119.768 158.516 119.595 158.17 119.334 157.911Z" fill="#E77C00"/>
<defs>
<linearGradient id="paint0_linear_21_18" x1="59.5" y1="137.679" x2="59.4536" y2="186.031" gradientUnits="userSpaceOnUse">
<stop offset="0.572917" stop-color="#343739"/>
<stop offset="1" stop-color="#395364"/>
</linearGradient>
<linearGradient id="paint1_linear_21_18" x1="246.193" y1="137.571" x2="245.093" y2="185.911" gradientUnits="userSpaceOnUse">
<stop offset="0.572917" stop-color="#343739"/>
<stop offset="1" stop-color="#395364"/>
</linearGradient>
<radialGradient id="paint2_radial_21_18" cx="0" cy="0" r="1" gradientUnits="userSpaceOnUse" gradientTransform="translate(129.266 115.013) scale(1.3771 1.37192)">
<stop stop-color="white"/>
<stop offset="0.9735" stop-color="white" stop-opacity="0"/>
</radialGradient>
<radialGradient id="paint3_radial_21_18" cx="0" cy="0" r="1" gradientUnits="userSpaceOnUse" gradientTransform="translate(222.515 99.1777) scale(1.98239 1.97492)">
<stop stop-color="white"/>
<stop offset="0.9735" stop-color="white" stop-opacity="0"/>
</radialGradient>
</defs>
</svg>
