<svg width="35" height="35" viewBox="0 0 35 35" fill="none" xmlns="http://www.w3.org/2000/svg">
<path d="M0 32.8809C0 22.627 0 12.373 0 2.11914C0.164062 1.57227 0.348633 1.01855 0.820312 0.683594C1.2168 0.40332 1.68164 0.225586 2.11914 0C12.373 0 22.627 0 32.8809 0C33.5439 0.18457 34.1592 0.47168 34.5352 1.08008C34.7334 1.40137 34.8496 1.77051 35 2.11914C35 12.373 35 22.627 35 32.8809C34.8086 33.5439 34.5283 34.1592 33.9199 34.5352C33.5986 34.7334 33.2295 34.8496 32.8809 35C22.627 35 12.373 35 2.11914 35C1.45605 34.8086 0.84082 34.5283 0.464844 33.9199C0.273438 33.5986 0.150391 33.2295 0 32.8809ZM13.8359 22.1416C12.0723 23.4609 10.165 23.9805 7.96387 23.8027C8.14844 23.9189 8.24414 23.9873 8.34668 24.0488C10.9512 25.5391 13.7402 25.9287 16.6592 25.3135C22.2236 24.1377 25.416 19.0791 25.4844 14.3418C25.4912 13.8428 25.6006 13.5078 26.0176 13.207C26.5781 12.7969 27.0293 12.25 27.4463 11.6143C27.043 11.7441 26.7148 11.8672 26.3799 11.9629C26.0449 12.0518 25.6963 12.1133 25.3545 12.1885C26.0723 11.6006 26.6191 10.9307 26.8994 10.1035C26.1816 10.3633 25.4639 10.6162 24.7529 10.876C24.5137 10.9648 24.3496 10.9033 24.1514 10.7324C22.9551 9.67969 21.5674 9.39941 20.0771 9.94629C18.5732 10.5 17.6982 11.6279 17.4932 13.2207C17.4316 13.6719 17.4863 14.1367 17.4863 14.6152C14.1709 14.376 11.4434 12.9746 9.27637 10.4316C8.74316 11.3682 8.62012 12.3252 8.83203 13.3301C9.05078 14.3281 9.61816 15.1074 10.4248 15.7363C10.4043 15.7705 10.3838 15.7979 10.3633 15.832C9.81641 15.6748 9.2627 15.5176 8.70215 15.3604C8.72266 16.2764 8.99609 17.0967 9.57031 17.8213C10.1377 18.5459 10.8896 19.0039 11.7783 19.25C11.7715 19.2842 11.7646 19.3115 11.7646 19.3457C11.2314 19.3457 10.6914 19.3457 10.1035 19.3457C10.7734 21.0479 11.9834 21.957 13.8359 22.1416Z" fill="#00E0C7"/>
</svg>
