<svg width="35" height="35" viewBox="0 0 35 35" fill="none" xmlns="http://www.w3.org/2000/svg">
<path d="M11.5289 34.9998C11.5009 34.9788 11.4799 34.9508 11.4449 34.9438C10.3179 34.5518 9.89789 33.5788 10.3949 32.5008C11.2139 30.7298 12.0329 28.9588 12.8589 27.1878C12.9639 26.9638 13.0479 26.7188 13.1739 26.5088C13.5729 25.8788 13.6079 25.1998 13.5589 24.4858C13.4539 22.8758 13.3839 21.2658 13.2999 19.6488C13.2929 19.5578 13.3069 19.4668 13.2999 19.3758C13.2789 19.0048 13.3909 18.7388 13.7269 18.4938C14.4549 17.9688 14.8609 17.1988 14.8539 16.3028C14.8469 15.4418 15.1059 14.7628 15.7569 14.1888C16.2819 13.7268 16.7159 13.1528 17.2059 12.6488C18.0739 11.7598 18.3959 10.7168 17.9969 9.52682C17.5909 8.32982 16.6879 7.71382 15.4279 7.54582C15.4139 7.41282 15.3929 7.26582 15.3719 7.06982C16.0229 7.10482 16.6529 7.13982 17.2829 7.18182C18.1089 7.23782 18.9349 7.30782 19.7679 7.35682C21.0419 7.44082 21.8959 8.39982 21.7769 9.65982C21.7419 9.99582 21.8259 10.2408 22.0499 10.4788C22.5189 10.9898 22.9529 11.5288 23.4219 12.0398C23.5479 12.1798 23.7369 12.2988 23.9189 12.3478C25.1929 12.6838 26.4739 12.9918 27.7479 13.3278C28.4409 13.5098 28.8749 14.1048 28.8259 14.7558C28.7769 15.4558 28.2799 15.9878 27.5729 16.0648C27.3769 16.0858 27.1669 16.0508 26.9709 16.0018C25.5289 15.6448 24.0799 15.3088 22.6519 14.9028C22.2389 14.7838 21.8819 14.4758 21.4899 14.2518C21.4759 14.4478 21.4479 14.7278 21.4269 15.0148C21.3149 16.6808 21.2029 18.3468 21.0909 20.0128C21.0839 20.1668 21.1049 20.3278 21.1539 20.4748C21.4969 21.5108 21.8189 22.5538 22.2039 23.5688C22.5189 24.4018 22.6379 25.2558 22.7149 26.1308C22.9039 28.4198 23.1069 30.7018 23.3099 32.9908C23.4009 33.9918 23.0369 34.5518 21.9659 34.9928C21.7629 34.9928 21.5599 34.9928 21.3499 34.9928C20.6009 34.7548 20.0689 34.2998 19.9919 33.4738C19.7959 31.3458 19.6279 29.2178 19.4319 27.0968C19.3689 26.3968 19.3339 25.6828 19.1379 25.0178C18.6689 23.4568 18.1159 21.9168 17.5909 20.3698C17.4159 19.8588 17.2549 19.7678 16.6809 19.9078C16.7719 21.7628 16.8559 23.6248 16.9679 25.4868C16.9959 25.9628 16.9259 26.4038 16.7229 26.8378C15.6729 29.0778 14.6229 31.3178 13.6079 33.5718C13.3069 34.2368 12.9359 34.7688 12.2149 34.9998C11.9839 34.9998 11.7599 34.9998 11.5289 34.9998Z" fill="#006270"/>
<path d="M7.65799 17.4649C6.98599 17.3039 6.46099 16.8839 6.22299 16.1769C5.99199 15.4769 6.05499 14.7629 6.36299 14.0839C6.57299 13.6359 6.92999 13.3139 7.39199 13.1389C7.60899 13.0549 7.67899 12.9359 7.69299 12.7189C7.78399 11.2139 7.88199 9.70186 7.98699 8.19686C8.01499 7.81186 8.02199 7.41986 8.10599 7.04886C8.34399 6.01986 9.30299 5.36886 10.353 5.48786C11.13 5.57886 11.914 5.65586 12.691 5.72586C13.811 5.83086 14.609 6.69886 14.602 7.81886C14.602 8.57486 14.602 8.57486 13.874 8.81286C12.95 9.12086 12.026 9.44286 11.102 9.74386C10.661 9.88386 10.353 10.1639 10.178 10.5839C9.40799 12.4249 8.62399 14.2589 7.88199 16.1139C7.72799 16.5269 7.73499 16.9959 7.65799 17.4649Z" fill="#006270"/>
<path d="M15.0569 13.6639C15.0919 13.1249 15.1059 12.5859 15.1759 12.0539C15.1969 11.9209 15.3929 11.8089 15.5189 11.6969C15.6379 11.5849 15.7709 11.4799 15.8549 11.3189C15.4069 11.5569 14.9799 11.8369 14.5109 12.0189C13.5239 12.4039 12.9569 13.0899 12.6139 14.0909C12.2219 15.2599 11.6899 16.3799 11.1999 17.5139C10.9199 18.1579 10.2479 18.4799 9.6039 18.3119C8.9389 18.1439 8.4839 17.5489 8.5329 16.8839C8.5469 16.6879 8.6099 16.4849 8.6869 16.2959C9.3729 14.6439 10.0729 12.9919 10.7589 11.3329C10.9339 10.9129 11.2069 10.6119 11.6129 10.4089C12.5999 9.89788 13.5939 9.38688 14.5529 8.83388C15.4419 8.31588 16.1979 8.51888 16.6179 8.87588C17.2479 9.41488 17.4999 10.3809 17.2199 11.1789C17.1639 11.3259 17.0939 11.4729 17.0169 11.6059C16.9329 11.7389 16.8279 11.8649 16.7229 11.9769C16.1979 12.5509 15.6659 13.1179 15.1339 13.6919C15.1059 13.6779 15.0849 13.6709 15.0569 13.6639Z" fill="#006270"/>
<path d="M15.6731 3.1429C15.6731 1.4419 17.0241 0.0769043 18.7111 0.0769043C20.4051 0.0769043 21.7701 1.4279 21.7771 3.1219C21.7841 4.8159 20.4331 6.1809 18.7391 6.1949C17.0591 6.1949 15.6801 4.8229 15.6731 3.1429Z" fill="#006270"/>
<path d="M14.2798 12.8308C14.2448 13.4118 14.2098 13.9998 14.1748 14.5808C14.1398 15.1478 14.0908 15.7148 14.0558 16.2818C13.9788 17.4998 12.9638 18.4098 11.7388 18.3328C11.9418 17.8708 12.1518 17.4088 12.3408 16.9468C12.8658 15.7008 13.3768 14.4548 13.9088 13.2158C13.9718 13.0618 14.0908 12.9288 14.1818 12.7888C14.2098 12.8028 14.2448 12.8168 14.2798 12.8308Z" fill="#006270"/>
</svg>
