<svg width="30" height="30" viewBox="0 0 30 30" fill="none" xmlns="http://www.w3.org/2000/svg">
<path d="M0 19.0159C0.148438 18.8127 0.273437 18.594 0.445312 18.4143C0.773438 18.0627 1.11719 17.7346 1.45312 17.3987C1.71094 17.1331 2.01562 17.0393 2.38281 17.1331C3.42969 17.3987 4.47656 17.6565 5.5625 17.9299C4.49219 19.2659 3.42969 20.5862 2.35156 21.9299C2.03906 21.6174 1.73438 21.3049 1.42188 21.0003C1.10156 20.6799 0.765625 20.3596 0.453125 20.0237C0.28125 19.844 0.148438 19.6331 0 19.4299C0 19.2893 0 19.1487 0 19.0159Z" fill="#006270"/>
<path d="M10.5859 30.0001C10.3672 29.8282 10.1328 29.6798 9.92969 29.4845C9.375 28.9532 8.83594 28.3985 8.29688 27.8595C8.22656 27.7892 8.16406 27.7189 8.10156 27.6485C9.42969 26.586 10.7422 25.5314 12.0859 24.4532C12.2188 24.9845 12.3438 25.4845 12.4688 25.9845C12.6094 26.5392 12.7422 27.1017 12.8906 27.6564C12.9766 27.9923 12.8906 28.2735 12.6563 28.5157C12.2578 28.9298 11.8516 29.336 11.4375 29.7345C11.3125 29.8517 11.1484 29.922 11 30.0079C10.8594 30.0001 10.7188 30.0001 10.5859 30.0001Z" fill="#006270"/>
<path d="M28.0782 0.0782471C29.4063 0.0704346 30.1094 0.937622 29.9219 2.32044C29.7813 3.32825 29.3907 4.25012 28.9063 5.13294C28.0938 6.60169 27.0704 7.90637 25.8829 9.09387C22.5469 12.422 19.2657 15.8126 15.7579 18.9689C12.2501 22.1251 8.62507 25.1329 4.81257 27.9142C4.14851 28.3986 3.82819 28.3673 3.24226 27.7814C2.89851 27.4376 2.55476 27.0939 2.21101 26.7501C1.64851 26.1954 1.62507 25.8517 2.08601 25.2267C5.00788 21.2189 8.17976 17.4142 11.5235 13.7501C14.6798 10.297 18.0235 7.02356 21.3594 3.75012C22.7891 2.35169 24.4063 1.19543 26.2969 0.484497C26.8673 0.27356 27.4766 0.164185 28.0626 0.0157471C28.0626 0.0235596 28.0704 0.0548096 28.0782 0.0782471Z" fill="#006270"/>
<path d="M14.8672 7.65649C13.1563 9.46899 11.4609 11.2581 9.75001 13.0627C9.68751 13.0081 9.61719 12.9534 9.55469 12.8831C6.71094 10.0549 3.87501 7.21118 1.03907 4.37524C0.546881 3.89086 0.546881 3.4143 1.03126 2.92993C1.59376 2.36743 2.15626 1.79711 2.72657 1.23461C3.10157 0.867427 3.47657 0.81274 3.91407 1.07836C7.53907 3.24243 11.1484 5.4143 14.7656 7.57836C14.7969 7.6018 14.8281 7.62524 14.8672 7.65649Z" fill="#006270"/>
<path d="M16.9453 20.2581C18.7578 18.5471 20.5469 16.8596 22.3594 15.1487C22.4063 15.2112 22.4609 15.2893 22.5078 15.3674C24.6328 18.9065 26.7578 22.4377 28.8828 25.9768C29.2266 26.5471 29.1797 26.883 28.7109 27.3518C28.1562 27.9065 27.6016 28.469 27.0391 29.0237C26.625 29.4299 26.125 29.4377 25.7188 29.0315C22.8203 26.1409 19.9297 23.2502 17.0391 20.3596C17 20.3284 16.9766 20.2971 16.9453 20.2581Z" fill="#006270"/>
<path d="M13.8438 4.98445C12.8203 4.37508 11.8047 3.7657 10.7891 3.15633C11.2734 2.66414 11.7266 2.15633 12.2266 1.69539C12.5156 1.42976 12.9844 1.47664 13.2734 1.75008C13.7344 2.18758 14.1875 2.63289 14.6172 3.09383C14.9063 3.40633 14.9063 3.86726 14.6328 4.19539C14.3984 4.46883 14.1172 4.71883 13.8438 4.98445Z" fill="#006270"/>
<path d="M26.8516 19.203C26.25 18.203 25.6406 17.1874 25.0234 16.1561C25.2891 15.8905 25.5391 15.6171 25.8203 15.3749C26.1406 15.1015 26.6094 15.1015 26.9219 15.3827C27.3828 15.8124 27.8359 16.2655 28.2656 16.7265C28.5391 17.0233 28.5859 17.4843 28.3203 17.7733C27.8594 18.2733 27.3516 18.7264 26.8516 19.203Z" fill="#006270"/>
</svg>
