<svg width="35" height="35" viewBox="0 0 35 35" fill="none" xmlns="http://www.w3.org/2000/svg">
<path d="M0 32.8809C0 22.627 0 12.373 0 2.11914C0.164063 1.57227 0.348633 1.01855 0.820312 0.683594C1.2168 0.40332 1.68164 0.225586 2.11914 0C12.373 0 22.627 0 32.8809 0C33.5439 0.18457 34.1592 0.47168 34.5352 1.08008C34.7334 1.40137 34.8496 1.77051 35 2.11914C35 12.373 35 22.627 35 32.8809C34.8086 33.5439 34.5283 34.1592 33.9199 34.5352C33.5986 34.7334 33.2295 34.8496 32.8809 35C22.627 35 12.373 35 2.11914 35C1.45605 34.8086 0.84082 34.5283 0.464844 33.9199C0.273438 33.5986 0.150391 33.2295 0 32.8809ZM17.0557 9.76172C17.0557 9.78906 17.0557 9.81641 17.0488 9.84375C16.9258 9.84375 16.7959 9.83691 16.6729 9.84375C14.2871 9.95313 11.8945 10.0352 9.50879 10.1992C8.12793 10.2949 7.19824 11.1426 6.96582 12.5098C6.76074 13.6924 6.6582 14.9023 6.59668 16.1055C6.49414 18.2725 6.53516 20.4326 6.97266 22.5654C7.21875 23.7822 8.00488 24.5479 9.23535 24.7324C10.3906 24.9033 11.5664 24.9922 12.7354 25.0469C16.8369 25.2246 20.9316 25.2246 25.0264 24.876C26.9951 24.7051 27.877 23.8779 28.1436 21.9434C28.4102 20.0088 28.499 18.0605 28.3896 16.1123C28.3213 14.8682 28.2051 13.6104 27.9932 12.3867C27.7949 11.2451 27.0156 10.541 25.874 10.2812C25.5322 10.1992 25.1768 10.1445 24.8281 10.1309C22.2441 9.99414 19.6533 9.87793 17.0557 9.76172Z" fill="#00E0C7"/>
<path d="M15.3467 14.2322C17.2471 15.3259 19.0996 16.3992 21.0137 17.4998C19.0996 18.6004 17.2402 19.6736 15.3467 20.7673C15.3467 18.5798 15.3467 16.4334 15.3467 14.2322Z" fill="#00E0C7"/>
</svg>
