<svg width="1920" height="988" viewBox="0 0 1920 988" fill="none" xmlns="http://www.w3.org/2000/svg">
<g opacity="0.1">
<path d="M642.138 180.299L601.433 126.672L623.86 103.15L647.7 174.25C647.82 174.698 647.657 174.982 647.493 175.265L644.269 180.208C643.719 180.835 642.542 180.911 642.138 180.299Z" fill="#F4F4F4"/>
<path d="M644.209 179.984C643.719 180.835 642.765 180.851 642.078 180.075L601.373 126.448L623.801 102.926L626.466 111.088C612.776 120.754 616.692 146.094 644.209 179.984Z" fill="#EDEDED"/>
<path d="M525.868 85.0244L586.408 114.384L605.136 87.775L530.864 78.6479C530.58 78.484 530.193 78.8275 529.747 78.9472L525.388 83.2337C525.062 83.8011 525.302 84.6964 525.868 85.0244Z" fill="#F4F4F4"/>
<path d="M525.835 83.114C525.062 83.8011 525.302 84.6964 525.868 85.0244L586.408 114.384L605.136 87.775L596.701 86.6764C590.068 102.128 564.279 103.281 525.835 83.114Z" fill="#EDEDED"/>
<path d="M561.185 167.684C589.252 139.292 629.025 100.086 636.755 89.6185C644.485 79.1507 645.474 64.9712 641.147 61.3326C636.88 57.9177 620.339 64.9888 614.527 72.7837C608.938 80.5187 558.987 154.119 553.845 161.734C548.419 169.185 552.632 175.973 561.185 167.684Z" fill="white"/>
<path d="M597.021 108.422C573.788 140.557 557.005 162.807 554.8 171.554C551.046 171.84 550.01 167.08 553.621 161.794C558.823 154.403 608.714 80.5786 614.303 72.8436C619.892 65.1085 636.657 57.9776 640.924 61.3925C641.207 61.5564 641.49 61.7204 641.61 62.1681C631.215 64.4738 612.584 86.9787 597.021 108.422Z" fill="#EDEDED"/>
<path d="M578.826 185.268L560.112 167.252L570.255 156.857L580.907 182.312C580.967 182.536 580.967 182.536 580.803 182.819L579.556 185.313C579.616 185.536 579.169 185.656 578.826 185.268Z" fill="#F4F4F4"/>
<path d="M533.127 147.853L554.532 162.51L562.572 150.519L535.551 145.285C535.327 145.345 535.327 145.345 535.104 145.404L532.947 147.182C533.007 147.406 532.843 147.69 533.127 147.853Z" fill="#F4F4F4"/>
<path d="M624.753 67.165C627.314 65.999 629.771 65.3406 631.901 65.2496L629.21 68.6096C627.854 68.0135 626.497 67.4175 624.753 67.165Z" fill="#8CD3F6"/>
<path d="M630.791 69.1457L633.868 65.4422C635.105 65.5906 636.179 66.0227 637.089 66.7384L633.461 71.0692C632.551 70.3534 631.701 69.8615 630.791 69.1457Z" fill="#8CD3F6"/>
<path d="M639.494 79.2887C639.494 79.2887 638.851 77.7817 637.581 75.723L640.108 72.6467C640.365 74.4972 640.234 76.6912 639.494 79.2887Z" fill="#8CD3F6"/>
<path d="M636.491 74.3356C635.804 73.56 635.341 72.7245 634.431 72.0088L638.059 67.678C638.746 68.4536 639.209 69.2891 639.569 70.6321L636.491 74.3356Z" fill="#8CD3F6"/>
<path d="M618.669 107.899L616.222 105.916L618.87 103.287L621.316 105.271C620.543 105.958 619.606 106.928 618.669 107.899Z" fill="#8CD3F6"/>
<path d="M615.308 111.439L612.921 109.679L615.508 106.827L617.955 108.81C617.182 109.497 616.245 110.468 615.308 111.439Z" fill="#8CD3F6"/>
<path d="M587.792 139.204L586.315 138.16L589.126 135.248L590.663 136.515C589.666 137.262 588.729 138.233 587.792 139.204Z" fill="#8CD3F6"/>
<path d="M591.376 135.604L589.839 134.337L592.427 131.484L593.964 132.752C593.087 133.946 592.15 134.917 591.376 135.604Z" fill="#8CD3F6"/>
<path d="M601.58 125.433L599.7 123.778L602.287 120.925L604.167 122.581C603.454 123.492 602.517 124.462 601.58 125.433Z" fill="#8CD3F6"/>
<path d="M594.797 132.288L593.26 131.021L595.848 128.168L597.668 129.6C596.448 130.407 595.734 131.318 594.797 132.288Z" fill="#8CD3F6"/>
<path d="M605.164 121.834L603.061 120.238L605.648 117.386L607.812 119.205C606.815 119.952 605.878 120.923 605.164 121.834Z" fill="#8CD3F6"/>
<path d="M608.525 118.294L606.362 116.475L608.949 113.622L611.113 115.442C610.236 116.636 609.522 117.547 608.525 118.294Z" fill="#8CD3F6"/>
<path d="M611.946 114.978L609.783 113.159L612.371 110.307L614.534 112.126C613.597 113.097 612.883 114.008 611.946 114.978Z" fill="#8CD3F6"/>
<path d="M598.158 128.749L596.338 127.317L598.926 124.465L600.746 125.896C600.092 127.031 599.095 127.778 598.158 128.749Z" fill="#8CD3F6"/>
<path d="M584.37 142.519L583.117 141.416L585.764 138.787L587.018 139.891C586.081 140.861 585.144 141.832 584.37 142.519Z" fill="#8CD3F6"/>
<path d="M628.752 97.2805L626.305 95.2972L628.893 92.4447L631.34 94.428C630.626 95.339 629.689 96.3097 628.752 97.2805Z" fill="#8CD3F6"/>
<path d="M634.091 91.2919C633.541 91.9192 632.827 92.8301 631.89 93.8009L629.443 91.8176L631.704 89.5325C631.868 89.2488 633.121 90.3523 634.091 91.2919Z" fill="#8CD3F6"/>
<path d="M625.391 100.82L622.944 98.8368L625.532 95.9843L627.979 97.9677C627.265 98.8786 626.328 99.8494 625.391 100.82Z" fill="#8CD3F6"/>
<path d="M581.009 146.059L579.816 145.179L582.403 142.327L583.597 143.206C582.72 144.401 581.723 145.148 581.009 146.059Z" fill="#8CD3F6"/>
<path d="M577.751 149.091L576.841 148.375L579.265 145.806L580.235 146.746C578.748 148.344 577.751 149.091 577.751 149.091Z" fill="#8CD3F6"/>
<path d="M622.03 104.36L619.583 102.376L622.171 99.524L624.677 101.731C623.904 102.418 622.967 103.389 622.03 104.36Z" fill="#8CD3F6"/>
<path d="M601.198 93.6284L603.645 95.6117L605.889 92.3714L603.442 90.3881C602.789 91.5228 602.135 92.6576 601.198 93.6284Z" fill="#8CD3F6"/>
<path d="M598.463 97.7198L600.85 99.4793L603.154 96.4628L600.708 94.4795C600.054 95.6143 599.4 96.749 598.463 97.7198Z" fill="#8CD3F6"/>
<path d="M576.974 130.107L578.451 131.151L580.532 128.194L578.995 126.927C578.342 128.061 577.688 129.196 576.974 130.107Z" fill="#8CD3F6"/>
<path d="M579.485 126.076L581.022 127.343L583.266 124.103L581.73 122.835C581.076 123.97 580.199 125.165 579.485 126.076Z" fill="#8CD3F6"/>
<path d="M587.749 114.025L589.629 115.681L591.873 112.44L589.993 110.785C589.056 111.756 588.402 112.891 587.749 114.025Z" fill="#8CD3F6"/>
<path d="M582.22 121.984L584.04 123.416L586.284 120.175L584.464 118.744C583.811 119.879 582.933 121.073 582.22 121.984Z" fill="#8CD3F6"/>
<path d="M590.483 109.934L592.587 111.53L594.831 108.289L592.668 106.47C591.79 107.665 591.137 108.799 590.483 109.934Z" fill="#8CD3F6"/>
<path d="M593.218 105.843L595.381 107.662L597.625 104.422L595.462 102.602C594.525 103.573 593.871 104.708 593.218 105.843Z" fill="#8CD3F6"/>
<path d="M595.952 101.751L598.116 103.571L600.36 100.33L598.197 98.511C597.32 99.7056 596.606 100.617 595.952 101.751Z" fill="#8CD3F6"/>
<path d="M584.954 117.893L586.774 119.324L589.019 116.084L587.199 114.653C586.321 115.847 585.668 116.982 584.954 117.893Z" fill="#8CD3F6"/>
<path d="M574.24 134.198L575.493 135.302L577.737 132.062L576.484 130.958C575.607 132.153 574.953 133.287 574.24 134.198Z" fill="#8CD3F6"/>
<path d="M609.745 81.7422L612.192 83.7255L614.436 80.4852L611.989 78.5019C611.335 79.6367 610.398 80.6074 609.745 81.7422Z" fill="#8CD3F6"/>
<path d="M614.68 75.1419C614.13 75.7691 613.416 76.68 612.703 77.5909L615.149 79.5743L617.067 76.9014C616.903 77.185 615.65 76.0815 614.68 75.1419Z" fill="#8CD3F6"/>
<path d="M606.95 85.6097L609.397 87.593L611.641 84.3527L609.194 82.3694C608.317 83.564 607.664 84.6988 606.95 85.6097Z" fill="#8CD3F6"/>
<path d="M571.505 138.29L572.699 139.17L574.943 135.929L573.75 135.049C572.873 136.244 572.219 137.379 571.505 138.29Z" fill="#8CD3F6"/>
<path d="M569.158 142.038L570.128 142.977L572.045 140.304L571.075 139.365C569.871 141.127 569.158 142.038 569.158 142.038Z" fill="#8CD3F6"/>
<path d="M603.992 89.761L606.439 91.7443L608.683 88.504L606.237 86.5207C605.583 87.6555 604.869 88.5664 603.992 89.761Z" fill="#8CD3F6"/>
<path d="M580.373 183.894L579.779 185.253C579.616 185.536 579.169 185.656 579.109 185.432L560.395 167.416L570.539 157.021L571.825 160.035C564.726 164.816 568.292 176.336 580.373 183.894Z" fill="#EDEDED"/>
<path d="M534.33 146.092L533.17 147.122C533.007 147.406 532.843 147.69 533.126 147.854L554.531 162.51L562.572 150.519L559.531 149.895C556.133 157.763 544.107 156.667 534.33 146.092Z" fill="#EDEDED"/>
</g>
<path opacity="0.2" d="M-267.28 425.234C-225.642 488.493 -154.989 463.681 -129.536 413.672C-76.9865 309.968 28.2069 291.717 96.3494 338.344C161.517 382.929 83.2401 449.525 37.627 381.249C-19.9169 294.879 118.639 212.334 356.18 237.902C448.06 247.753 536.157 217.051 545.595 175.996" stroke="#127E76" stroke-width="2" stroke-miterlimit="10" stroke-linecap="round" stroke-dasharray="3.75 3.75"/>
</svg>
