<svg width="20" height="20" viewBox="0 0 20 20" fill="none" xmlns="http://www.w3.org/2000/svg">
<path d="M18.1721 19.9999C12.7395 19.9999 7.30681 19.9999 1.87414 19.9999C1.78709 19.9795 1.70005 19.959 1.613 19.9385C0.752789 19.6876 0.266357 19.0271 0.266357 18.0952C0.266357 13.451 0.266357 8.80178 0.271478 4.15764C0.271478 3.91699 0.31244 3.66609 0.389245 3.43056C0.594058 2.76492 1.32627 2.25288 1.99703 2.28361C1.99703 2.35017 1.99703 2.42185 1.99703 2.49354C1.99703 3.19502 1.99191 3.89651 1.99703 4.59799C2.00215 5.76543 2.83164 6.6154 3.99908 6.641C4.40358 6.65124 4.80297 6.65124 5.20747 6.641C6.38515 6.61028 7.20952 5.75519 7.21464 4.57751C7.21464 3.87603 7.21464 3.17454 7.21464 2.47306C7.21464 2.40649 7.21464 2.33481 7.21464 2.26312C9.09892 2.26312 10.9627 2.26312 12.8316 2.26312C12.8316 3.03629 12.8316 3.7941 12.8316 4.55703C12.8316 5.77567 13.6765 6.62564 14.8951 6.641C15.2638 6.64612 15.6376 6.64612 16.0062 6.641C17.2044 6.62564 18.0441 5.77567 18.0493 4.57751C18.0493 3.87603 18.0493 3.17454 18.0493 2.47306C18.0493 2.40649 18.0493 2.33481 18.0493 2.21704C18.3258 2.30921 18.5818 2.35529 18.8019 2.46794C19.4932 2.82636 19.785 3.42544 19.785 4.19349C19.7799 8.81202 19.785 13.4306 19.7799 18.0542C19.7799 18.1669 19.7799 18.2744 19.7646 18.387C19.7185 18.853 19.5137 19.237 19.1655 19.5545C18.8839 19.8054 18.5357 19.9231 18.1721 19.9999ZM10.0103 9.23701C7.81884 9.23701 5.63246 9.23701 3.44096 9.23701C2.84188 9.23701 2.53978 9.53911 2.53978 10.1382C2.53978 12.4884 2.53978 14.8438 2.53978 17.194C2.53978 17.7931 2.84188 18.0901 3.44096 18.0901C7.81372 18.0901 12.1865 18.0901 16.5592 18.0901C17.1686 18.0901 17.4655 17.7931 17.4655 17.1786C17.4655 14.8335 17.4655 12.4884 17.4655 10.1433C17.4655 9.53399 17.1686 9.23701 16.5592 9.23701C14.378 9.23701 12.1916 9.23701 10.0103 9.23701Z" fill="#006270"/>
<path d="M14.1221 2.6881C14.1221 2.07366 14.1221 1.4541 14.1221 0.839665C14.1221 0.30203 14.3883 0.0408936 14.9208 0.0408936C15.269 0.0408936 15.6223 0.0408936 15.9705 0.0408936C16.4313 0.0460139 16.7078 0.317391 16.713 0.783341C16.7181 1.80229 16.713 2.82123 16.713 3.84018C16.713 4.10131 16.7181 4.35733 16.713 4.61847C16.7027 5.0793 16.4365 5.34043 15.9807 5.34555C15.6018 5.35067 15.2281 5.35067 14.8492 5.34555C14.3934 5.34043 14.1221 5.07418 14.1169 4.61847C14.1169 3.9733 14.1221 3.32814 14.1221 2.6881Z" fill="#006270"/>
<path d="M5.88345 2.69334C5.88345 3.31802 5.88345 3.9427 5.88345 4.56226C5.88345 5.08453 5.62231 5.34567 5.11028 5.34567C4.76722 5.34567 4.42415 5.34567 4.07597 5.34567C3.54858 5.34567 3.29256 5.08965 3.29256 4.55202C3.29256 3.81981 3.29256 3.08248 3.29256 2.35028C3.29256 1.83824 3.28744 1.32621 3.29256 0.809058C3.29256 0.297025 3.55882 0.0358887 4.07597 0.0358887C4.41903 0.0358887 4.7621 0.0358887 5.11028 0.0358887C5.62231 0.0358887 5.88345 0.307266 5.88857 0.819299C5.88345 1.44398 5.88345 2.06866 5.88345 2.69334Z" fill="#006270"/>
<path d="M10.0308 10.5991C10.2714 10.5991 10.5121 10.594 10.7527 10.5991C11.0804 10.6042 11.2596 10.7783 11.2648 11.106C11.2699 11.5925 11.2699 12.0789 11.2648 12.5653C11.2596 12.8879 11.0958 13.0722 10.7783 13.0774C10.2714 13.0927 9.76451 13.0927 9.2576 13.0774C8.94014 13.0671 8.77629 12.8828 8.77117 12.5602C8.76605 12.0738 8.76605 11.5873 8.77117 11.1009C8.77629 10.7732 8.95551 10.5991 9.28321 10.594C9.53922 10.594 9.785 10.5991 10.0308 10.5991Z" fill="#006270"/>
<path d="M11.2699 15.8014C11.2699 16.0421 11.275 16.2827 11.2699 16.5234C11.2597 16.8511 11.0856 17.0303 10.7579 17.0354C10.2714 17.0405 9.78501 17.0405 9.29858 17.0354C8.96576 17.0303 8.78655 16.8511 8.78143 16.5131C8.77631 16.0318 8.77631 15.5505 8.78143 15.0692C8.78655 14.7364 8.96576 14.5521 9.3037 14.5469C9.78501 14.5418 10.2663 14.5418 10.7476 14.5469C11.0958 14.5521 11.2699 14.7364 11.275 15.0794C11.2699 15.3201 11.2699 15.5608 11.2699 15.8014Z" fill="#006270"/>
<path d="M6.07278 10.5991C6.31856 10.5991 6.56434 10.594 6.81523 10.5991C7.11733 10.6042 7.29654 10.7578 7.30678 11.0599C7.32214 11.5771 7.32214 12.0994 7.30678 12.6165C7.30166 12.9033 7.13781 13.0671 6.85107 13.0722C6.33392 13.0876 5.81165 13.0876 5.2945 13.0722C4.98728 13.062 4.83367 12.8828 4.82855 12.5653C4.82343 12.0789 4.82343 11.5925 4.82855 11.106C4.83367 10.7732 5.00264 10.6042 5.33546 10.594C5.58123 10.594 5.82701 10.5991 6.07278 10.5991Z" fill="#006270"/>
<path d="M13.9887 10.5991C14.2345 10.5991 14.4803 10.594 14.7312 10.5991C15.0384 10.6093 15.2125 10.7783 15.2176 11.0855C15.2227 11.5873 15.2227 12.084 15.2176 12.5858C15.2125 12.8879 15.0589 13.0671 14.7568 13.0773C14.2447 13.0927 13.7327 13.0927 13.2207 13.0773C12.9083 13.0671 12.7496 12.8981 12.7445 12.5807C12.7343 12.0891 12.7343 11.5924 12.7445 11.1009C12.7496 10.7629 12.9288 10.5991 13.277 10.5991C13.5074 10.594 13.7481 10.5991 13.9887 10.5991Z" fill="#006270"/>
<path d="M6.06255 17.0355C5.82189 17.0355 5.58124 17.0406 5.34058 17.0355C5.00776 17.0304 4.83367 16.8563 4.83367 16.5286C4.82855 16.037 4.82855 15.5403 4.83367 15.0488C4.83879 14.7416 5.00264 14.5572 5.30986 14.5521C5.81677 14.5419 6.32368 14.5419 6.83059 14.5521C7.13269 14.5572 7.30166 14.7262 7.3119 15.0283C7.32726 15.5352 7.32214 16.0421 7.3119 16.5491C7.30678 16.8716 7.12245 17.0304 6.80499 17.0355C6.5541 17.0406 6.30832 17.0355 6.06255 17.0355Z" fill="#006270"/>
<path d="M15.2127 15.7912C15.2127 16.037 15.2179 16.2828 15.2127 16.5337C15.2076 16.8511 15.0335 17.0303 14.7161 17.0355C14.2245 17.0406 13.7278 17.0406 13.2363 17.0355C12.9188 17.0303 12.7396 16.8665 12.7294 16.5439C12.7191 16.0421 12.7191 15.5455 12.7294 15.0437C12.7345 14.7262 12.9137 14.5572 13.2363 14.5521C13.7278 14.5419 14.2245 14.5419 14.7161 14.5521C15.0335 14.5572 15.2025 14.7364 15.2127 15.0539C15.2179 15.2997 15.2127 15.5455 15.2127 15.7912Z" fill="#006270"/>
</svg>
