<svg width="333" height="187" viewBox="0 0 333 187" fill="none" xmlns="http://www.w3.org/2000/svg">
<path d="M291 116.5H15.1001V157.6H291V116.5Z" fill="#29293F"/>
<path d="M252.4 186.1C265.986 186.1 277 175.086 277 161.5C277 147.914 265.986 136.9 252.4 136.9C238.814 136.9 227.8 147.914 227.8 161.5C227.8 175.086 238.814 186.1 252.4 186.1Z" fill="#36364F"/>
<path d="M252.4 179.8C262.507 179.8 270.7 171.607 270.7 161.5C270.7 151.393 262.507 143.2 252.4 143.2C242.293 143.2 234.1 151.393 234.1 161.5C234.1 171.607 242.293 179.8 252.4 179.8Z" fill="#FEFEFE"/>
<path d="M252.4 173.4C258.972 173.4 264.3 168.072 264.3 161.5C264.3 154.928 258.972 149.6 252.4 149.6C245.828 149.6 240.5 154.928 240.5 161.5C240.5 168.072 245.828 173.4 252.4 173.4Z" fill="#A3D5E6"/>
<path d="M252.4 167.3C255.603 167.3 258.2 164.703 258.2 161.5C258.2 158.297 255.603 155.7 252.4 155.7C249.197 155.7 246.6 158.297 246.6 161.5C246.6 164.703 249.197 167.3 252.4 167.3Z" fill="#36364F"/>
<path d="M57.1 186.1C70.6862 186.1 81.7 175.086 81.7 161.5C81.7 147.914 70.6862 136.9 57.1 136.9C43.5138 136.9 32.5 147.914 32.5 161.5C32.5 175.086 43.5138 186.1 57.1 186.1Z" fill="#36364F"/>
<path d="M57.1001 179.8C67.2069 179.8 75.4 171.607 75.4 161.5C75.4 151.393 67.2069 143.2 57.1001 143.2C46.9932 143.2 38.8 151.393 38.8 161.5C38.8 171.607 46.9932 179.8 57.1001 179.8Z" fill="#FEFEFE"/>
<path d="M57.1 173.4C63.6721 173.4 69 168.072 69 161.5C69 154.928 63.6721 149.6 57.1 149.6C50.5278 149.6 45.2 154.928 45.2 161.5C45.2 168.072 50.5278 173.4 57.1 173.4Z" fill="#A3D5E6"/>
<path d="M57.1001 167.3C60.3033 167.3 62.9 164.703 62.9 161.5C62.9 158.297 60.3033 155.7 57.1001 155.7C53.8968 155.7 51.3 158.297 51.3 161.5C51.3 164.703 53.8968 167.3 57.1001 167.3Z" fill="#36364F"/>
<path d="M8.00005 133H3.30005C2.50005 133 1.80005 132.3 1.80005 131.5V120.5C1.80005 119.7 2.50005 119 3.30005 119H8.00005V133Z" fill="#FEFEFE"/>
<path d="M309.3 86.4002V157.6H287.9C287.9 151.1 282.6 145.8 276.1 145.8H235.3C227.9 145.8 220.8 148.7 215.6 154L212 157.6H88.5L74.9 138.3C73 135.5 69.8 133.9 66.4 133.9H47.7C44 133.9 40.7001 135.8 38.8 138.9L27.6001 157.5H4.30005V126.6C4.30005 117.7 5.80005 109 8.80005 100.6C9.80005 97.7002 11 94.9002 12.4 92.1002L15.3 86.3002L32.6001 51.2002H300.8L309.3 86.4002Z" fill="#C33E5D"/>
<path d="M141.6 96.5V153.9H122.5L141.6 96.5Z" fill="#AF3152"/>
<path d="M92.7 102.3H77.8C77.2 102.3 76.8 101.8 76.8 101.3V100.2C76.8 99.6002 77.3 99.2002 77.8 99.2002H92.7V102.3Z" fill="#FEFEFE"/>
<path d="M309.3 86.4H15.1001L32.4001 51.3H300.6L309.3 86.4Z" fill="#36364F"/>
<path opacity="0.1" d="M309.3 86.4001V100.7H8.69995C9.69995 97.8002 10.9 95.0002 12.3 92.2002L15.2 86.4001H309.3Z" fill="#FEFEFE"/>
<path d="M96.3001 51.3H89.1001V86.4H96.3001V51.3Z" fill="#FEFEFE"/>
<path d="M287.3 107.2H258.6V109.2H287.3V107.2Z" fill="#36364F"/>
<path d="M287.3 110.3H258.6V112.3H287.3V110.3Z" fill="#36364F"/>
<path d="M287.3 113.4H258.6V115.4H287.3V113.4Z" fill="#36364F"/>
<path d="M287.3 116.5H258.6V118.5H287.3V116.5Z" fill="#36364F"/>
<path d="M287.3 119.6H258.6V121.6H287.3V119.6Z" fill="#36364F"/>
<path d="M287.3 122.7H258.6V124.7H287.3V122.7Z" fill="#36364F"/>
<path d="M215 161.4H88.0001C86.7001 161.4 85.6001 160.3 85.6001 159V156.3C85.6001 155 86.7001 153.9 88.0001 153.9H215C216.3 153.9 217.4 155 217.4 156.3V159C217.4 160.3 216.3 161.4 215 161.4Z" fill="#FEFEFE"/>
<path d="M92.7 86.4001V153.9" stroke="#FEFEFE" stroke-width="0.25" stroke-miterlimit="10"/>
<path d="M92.7 126.7H38.5L23.6 150H4.19995" stroke="#FEFEFE" stroke-width="0.25" stroke-miterlimit="10"/>
<path d="M33.2 96.5002H30.9C29.7 96.5002 28.8 95.6001 28.8 94.4001V73.0002C28.8 71.8002 29.7 70.9001 30.9 70.9001H33.2C34.4 70.9001 35.3 71.8002 35.3 73.0002V94.4001C35.3 95.6001 34.4 96.5002 33.2 96.5002Z" fill="#FEFEFE"/>
<path d="M36.3999 48.3H27.8999C25.5999 48.3 23.7 50.2 23.7 52.5V78.3C23.7 80.6 25.5999 82.5 27.8999 82.5H28.8" stroke="#A3D5E6" stroke-miterlimit="10"/>
<path d="M300.6 51.3H32.4001C32.4001 49.1 33.0002 47.1 34.0002 45.3C36.1002 41.7 40.0001 39.3 44.4001 39.3H288.5C291.8 39.3 294.8 40.7 297 42.8C297.7 43.5 298.4 44.4 298.9 45.3C300 47 300.6 49.1 300.6 51.3Z" fill="#FEFEFE"/>
<path opacity="0.3" d="M300.6 51.3H32.4001C32.4001 49.1 33.0002 47.1 34.0002 45.3H299C300 47 300.6 49.1 300.6 51.3Z" fill="#C33E5D"/>
<path d="M294.6 51.3H287.4V86.4H294.6V51.3Z" fill="#FEFEFE"/>
<path d="M217.9 51.3H210.7V86.4H217.9V51.3Z" fill="#FEFEFE"/>
<path d="M214.3 86.4001V153.9" stroke="#FEFEFE" stroke-width="0.25" stroke-miterlimit="10"/>
<path d="M310.6 161.4H287C285.7 161.4 284.6 160.3 284.6 159V156.3C284.6 155 285.7 153.9 287 153.9H310.7C312 153.9 313.1 155 313.1 156.3V159C313 160.3 312 161.4 310.6 161.4Z" fill="#FEFEFE"/>
<path d="M26.9 161.4H3.20004C1.90004 161.4 0.800049 160.3 0.800049 159V156.3C0.800049 155 1.90004 153.9 3.20004 153.9H26.9C28.2 153.9 29.3 155 29.3 156.3V159C29.4 160.3 28.3 161.4 26.9 161.4Z" fill="#FEFEFE"/>
<path d="M74.9001 35.1001H252.5V14.7001C252.5 6.90009 246.2 0.600098 238.4 0.600098H109.4C90.3001 0.600098 74.9001 16.1001 74.9001 35.1001Z" fill="#36364F"/>
<path d="M260.1 35.1002H70.1C69.5 35.1002 69 34.6002 69 34.0002V32.8002C69 32.2002 69.5 31.7002 70.1 31.7002H260.2C260.8 31.7002 261.3 32.2002 261.3 32.8002V34.0002C261.2 34.6002 260.7 35.1002 260.1 35.1002Z" fill="#FEFEFE"/>
<path d="M99.6 25.5V39.2H96.2V25.5C96.2 24.6 96.9999 23.8 97.8999 23.8C98.8999 23.8 99.6 24.6 99.6 25.5Z" fill="#FEFEFE"/>
<path d="M229.5 25.5V39.2H226.1V25.5C226.1 24.6 226.9 23.8 227.8 23.8C228.7 23.8 229.5 24.6 229.5 25.5Z" fill="#FEFEFE"/>
<path d="M78.1001 20.4001H223V0.600098" stroke="#FEFEFE" stroke-width="0.25" stroke-miterlimit="10"/>
<path d="M329.6 142.1H309.3V93H329.6C331.5 93 333 94.5 333 96.4V138.7C333 140.5 331.4 142.1 329.6 142.1Z" fill="#36364F"/>
<g opacity="0.2">
<g opacity="0.2">
<path opacity="0.2" d="M327.9 93H327.5V142.1H327.9V93Z" fill="#FEFEFE"/>
</g>
<g opacity="0.2">
<path opacity="0.2" d="M312.3 93H311.9V142.1H312.3V93Z" fill="#FEFEFE"/>
</g>
<g opacity="0.2">
<path opacity="0.2" d="M315.4 93H315V142.1H315.4V93Z" fill="#FEFEFE"/>
</g>
<g opacity="0.2">
<path opacity="0.2" d="M318.5 93H318.1V142.1H318.5V93Z" fill="#FEFEFE"/>
</g>
<g opacity="0.2">
<path opacity="0.2" d="M321.6 93H321.2V142.1H321.6V93Z" fill="#FEFEFE"/>
</g>
<g opacity="0.2">
<path opacity="0.2" d="M324.7 93H324.3V142.1H324.7V93Z" fill="#FEFEFE"/>
</g>
</g>
</svg>
