<svg width="20" height="20" viewBox="0 0 20 20" fill="none" xmlns="http://www.w3.org/2000/svg">
<path d="M10.373 19.9998C10.1938 19.8915 10.1438 19.7248 10.1438 19.5206C10.148 18.5162 10.148 17.5076 10.148 16.5033C10.148 16.4449 10.148 16.3866 10.148 16.3032C10.373 16.3157 10.5814 16.3241 10.8023 16.3366C10.8064 16.3991 10.8148 16.4491 10.8148 16.4991C10.8148 17.516 10.8106 18.537 10.8189 19.5539C10.8189 19.7581 10.7606 19.9081 10.5731 19.9957C10.5022 19.9998 10.4397 19.9998 10.373 19.9998Z" fill="#00E0C7"/>
<path d="M10.1352 4.42163C10.1352 8.15157 10.1352 11.8773 10.1352 15.6031C7.83056 15.4281 5.40506 13.4027 5.18001 10.4687C4.92996 7.1597 7.45131 4.68002 10.1352 4.42163Z" fill="#00E0C7"/>
<path d="M14.4321 4.40932C12.24 5.98881 11.99 8.58102 12.6984 10.198C13.1819 11.3024 13.9654 12.1234 15.0656 12.6194C16.1575 13.1111 17.2827 13.1528 18.458 12.7902C18.0871 13.4945 17.6078 14.0613 17.0077 14.5239C15.9908 15.3074 14.8322 15.695 13.5445 15.6617C12.6026 15.6408 11.7274 15.3866 10.9231 14.899C10.8647 14.8615 10.8189 14.7573 10.8189 14.6823C10.8105 13.6863 10.8147 12.6944 10.8147 11.6983C10.8147 9.60624 10.8189 7.51413 10.8105 5.42203C10.8105 5.24699 10.8564 5.14697 11.0148 5.05529C12.0608 4.47183 13.1777 4.27596 14.3613 4.38015C14.378 4.38848 14.3988 4.39682 14.4321 4.40932Z" fill="#00E0C7"/>
<path d="M16.8703 7.44315C17.0745 7.40981 17.2787 7.37647 17.487 7.35147C17.6746 7.33063 17.7954 7.23477 17.8663 7.06391C17.9455 6.88053 18.033 6.70133 18.1372 6.48462C18.2414 6.7055 18.3331 6.8847 18.4122 7.07224C18.4831 7.23477 18.5998 7.33063 18.779 7.35147C18.9874 7.37647 19.1957 7.41398 19.4083 7.44732C19.4208 7.46816 19.4333 7.48483 19.45 7.50566C19.2874 7.65153 19.1249 7.79739 18.9624 7.94742C18.8332 8.06828 18.7873 8.20998 18.8248 8.38918C18.8665 8.59756 18.8915 8.8101 18.929 9.06015C18.7248 8.94763 18.5498 8.86011 18.3789 8.75592C18.2164 8.66007 18.0663 8.6559 17.9038 8.75176C17.7329 8.85178 17.5537 8.94346 17.3495 9.05599C17.387 8.81427 17.412 8.60173 17.4579 8.39752C17.4996 8.21415 17.4495 8.06411 17.3162 7.93909C17.1578 7.79322 16.9953 7.6557 16.8369 7.514C16.8411 7.48899 16.8536 7.46816 16.8703 7.44315Z" fill="#00E0C7"/>
<path d="M10.7981 3.69245C10.5814 3.70495 10.3771 3.71745 10.1604 3.72579C10.1563 3.6466 10.1521 3.58409 10.1521 3.52158C10.1521 2.5172 10.1521 1.50866 10.1521 0.504283C10.1521 0.466775 10.1521 0.4251 10.1521 0.387592C10.1729 0.17088 10.3105 0.0291843 10.4938 0.0375193C10.6814 0.0416869 10.8147 0.183383 10.8147 0.404262C10.8189 1.47532 10.8147 2.54638 10.8147 3.61326C10.8106 3.6341 10.8022 3.65494 10.7981 3.69245Z" fill="#00E0C7"/>
<path d="M5.86351 15.3283C5.78433 15.4533 5.74682 15.5533 5.67598 15.6242C5.04251 16.266 4.40071 16.9036 3.76308 17.5412C3.60054 17.7038 3.4005 17.7163 3.26297 17.5871C3.11294 17.4454 3.12544 17.2453 3.29631 17.0745C3.93395 16.4368 4.57158 15.7992 5.21338 15.1616C5.3259 15.049 5.46343 14.9657 5.61346 15.0574C5.70932 15.1116 5.77183 15.2283 5.86351 15.3283Z" fill="#00E0C7"/>
<path d="M2.16283 10.3521C1.76691 10.3521 1.371 10.3521 0.975082 10.3521C0.895899 10.3521 0.816715 10.3479 0.7417 10.3313C0.583334 10.2896 0.50415 10.1771 0.50415 10.0187C0.50415 9.85616 0.587501 9.7478 0.745867 9.71029C0.820883 9.69362 0.900066 9.68945 0.979249 9.68945C1.76691 9.68945 2.55041 9.68945 3.33807 9.68945C3.37558 9.68945 3.41726 9.68945 3.45477 9.68945C3.67981 9.70612 3.81734 9.82698 3.82151 10.0145C3.82568 10.2104 3.68398 10.3479 3.4506 10.3521C3.02134 10.3563 2.59209 10.3521 2.16283 10.3521Z" fill="#00E0C7"/>
<path d="M3.47136 2.32568C3.59638 2.4007 3.70057 2.43821 3.77559 2.51322C4.41322 3.14252 5.04668 3.77599 5.67598 4.40945C5.84685 4.58032 5.85935 4.78453 5.71349 4.92623C5.56763 5.06792 5.38425 5.05959 5.21339 4.88872C4.57575 4.25109 3.93812 3.61345 3.30049 2.97582C3.18796 2.8633 3.11295 2.7216 3.20463 2.57574C3.25881 2.47988 3.37134 2.41737 3.47136 2.32568Z" fill="#00E0C7"/>
</svg>
