<svg width="36" height="35" viewBox="0 0 36 35" fill="none" xmlns="http://www.w3.org/2000/svg">
<path d="M35.1367 3.20605C35.1367 12.7148 35.1367 22.2168 35.1367 31.7256C35.123 31.7461 35.1025 31.7598 35.0957 31.7803C34.8701 33.1885 33.6465 34.1387 32.1494 34.1387C22.4492 34.125 12.749 34.1318 3.04883 34.125C2.75488 34.125 2.44727 34.1045 2.16699 34.0293C0.847656 33.6807 0.0683594 32.6211 0.0683594 31.1992C0.0683594 27.0293 0.0683594 22.8525 0.0683594 18.6826C0.0683594 13.7129 0.0683594 8.74316 0.0683594 3.77344C0.0683594 3.09668 0.211914 2.46094 0.628906 1.91406C1.25781 1.10059 2.10547 0.792969 3.11035 0.792969C12.0107 0.799805 20.9111 0.799805 29.8184 0.799805C30.6182 0.799805 31.418 0.806641 32.2178 0.799805C32.9424 0.792969 33.585 1.00488 34.1455 1.46289C34.6992 1.9209 34.959 2.54297 35.1367 3.20605ZM14.7793 28.3008C16.3926 28.3008 17.9443 28.3008 19.5303 28.3008C19.5303 24.4727 19.5303 20.6719 19.5303 16.8301C20.3232 16.8301 21.082 16.8301 21.8477 16.8301C22.4971 16.8301 22.4971 16.8301 22.6475 16.1943C22.8662 15.2646 23.0781 14.3418 23.3105 13.3711C22.0391 13.3711 20.8018 13.3711 19.4756 13.3711C19.5439 12.5645 19.5781 11.792 19.6738 11.0332C19.7217 10.6504 19.9746 10.3428 20.3506 10.1855C21 9.91895 21.6768 9.83691 22.3535 10.0762C22.791 10.2266 23.2012 10.4453 23.6523 10.6504C23.9326 9.57715 24.2197 8.51074 24.5 7.43066C23.9941 7.28027 23.5293 7.15723 23.0781 7.00684C21.3896 6.45312 19.6875 6.49414 17.9922 6.93848C16.6182 7.29395 15.668 8.15527 15.1553 9.46777C14.8203 10.3291 14.7998 11.2451 14.793 12.1543C14.793 12.5508 14.793 12.9404 14.793 13.3643C14.0342 13.3643 13.3164 13.3643 12.5918 13.3643C12.5918 14.5264 12.5918 15.6543 12.5918 16.8232C13.3301 16.8232 14.041 16.8232 14.7861 16.8232C14.7793 20.6719 14.7793 24.4727 14.7793 28.3008Z" fill="#00E0C7"/>
</svg>
